<?xml version="1.0" encoding="utf-8"?>
<svg version="1.1" id="Layer_1" xmlns="http://www.w3.org/2000/svg" xmlns:xlink="http://www.w3.org/1999/xlink" x="0px" y="0px"
	 viewBox="0 0 108 107.6" style="enable-background:new 0 0 108 107.6;" xml:space="preserve">
	<path fill="#FFFFFF" d="M54,0.5C24.6,0.5,0.7,24.4,0.7,53.8s23.9,53.3,53.3,53.3c29.4,0,53.3-23.9,53.3-53.3S83.4,0.5,54,0.5"/>
	<path fill="#50C7E8" d="M54,100.3c-25.7,0-46.5-20.9-46.5-46.5C7.5,28.2,28.3,7.3,54,7.3c25.7,0,46.5,20.9,46.5,46.5
		C100.5,79.5,79.7,100.3,54,100.3 M54,0.5C24.6,0.5,0.7,24.4,0.7,53.8s23.9,53.3,53.3,53.3c29.4,0,53.3-23.9,53.3-53.3
		S83.4,0.5,54,0.5"/>
	<path fill="#50C7E8" d="M54,11c-23.6,0-42.8,19.2-42.8,42.8c0,23.6,19.2,42.8,42.8,42.8c23.6,0,42.8-19.2,42.8-42.8
		C96.8,30.2,77.6,11,54,11z M76.1,54.5L56.3,78.4c-1.5,2.6-3.8,2.6-5.3,0L31.2,54.5c-1.5-2.6-0.3-4.7,2.7-4.7h11.3V32
		c0-1.5,1.2-2.7,2.7-2.7h11.8c1.5,0,2.7,1.2,2.7,2.7v17.8h11.3C76.4,49.8,77.6,51.9,76.1,54.5z"/>
</svg>
