<?xml version="1.0" encoding="utf-8"?>
<svg version="1.1" id="Layer_1" xmlns="http://www.w3.org/2000/svg" xmlns:xlink="http://www.w3.org/1999/xlink" x="0px" y="0px"
	 viewBox="0 0 65.6 80" enable-background="new 0 0 65.6 80" xml:space="preserve">
	<path fill="currentColor" d="M54.4,39L34.8,5c-0.9-1.6-3.2-1.6-4.1,0L11.1,39c-9.6,16.7,2.4,37.5,21.7,37.5h0C52,76.5,64,55.6,54.4,39z M32.3,67.6
		c0-0.9,0.7-1.6,1.6-1.6c5.4,0,10.3-2.8,13-7.5c2.7-4.7,2.7-10.3,0-15c-0.4-0.7-0.2-1.7,0.6-2.1c0.7-0.4,1.7-0.2,2.1,0.6
		c3.3,5.7,3.3,12.4,0,18.1s-9.1,9.1-15.7,9.1C33,69.1,32.3,68.4,32.3,67.6z"/>
</svg>
