<?xml version="1.0" encoding="utf-8"?>
<svg version="1.1" id="Layer_1" xmlns="http://www.w3.org/2000/svg" xmlns:xlink="http://www.w3.org/1999/xlink" x="0px" y="0px"
	 viewBox="0 0 107.6 108" style="enable-background:new 0 0 107.6 108;" xml:space="preserve">
	<path fill="#FFFFFF" d="M53.8,0.7C24.4,0.7,0.5,24.6,0.5,54s23.9,53.3,53.3,53.3c29.4,0,53.3-23.9,53.3-53.3S83.3,0.7,53.8,0.7"/>
	<path fill="#7AC143" d="M53.8,100.5C28.2,100.5,7.3,79.7,7.3,54c0-25.7,20.9-46.5,46.5-46.5c25.7,0,46.5,20.9,46.5,46.5
		C100.3,79.7,79.5,100.5,53.8,100.5 M53.8,0.7C24.4,0.7,0.5,24.6,0.5,54s23.9,53.3,53.3,53.3c29.4,0,53.3-23.9,53.3-53.3
		S83.3,0.7,53.8,0.7"/>
	<path fill="#7AC143" d="M53.8,11.1C30.2,11.1,11,30.4,11,54c0,23.6,19.2,42.8,42.9,42.8c23.6,0,42.8-19.2,42.8-42.8
		C96.7,30.4,77.4,11.1,53.8,11.1z"/>
	<path fill="#FFFFFF" d="M53.9,22.7c3.4,1.5,5.7-1.2,5.7,0.4l0,3h-3.2l-4.9,0l-3.2,0v-3C48.2,21.5,51.3,21.6,53.9,22.7z"/>
	<path fill="#FFFFFF" d="M46.3,73.2l1.5-2.6c0.2-0.4,0.4-1.2,0.4-1.7V58.3v-1.5v-1.5V29.5c0-0.5,0.4-0.9,0.9-0.9l9.6,0
		c0.5,0,0.8,0.4,0.8,0.9l0,25.7v1.5v1.5v10.6c0,0.5,0.2,1.3,0.4,1.7l1.5,2.6c0.2,0.4,0.1,0.8-0.4,0.8l-14.4,0
		C46.2,74,46,73.6,46.3,73.2z"/>
	<path fill="#FFFFFF" d="M66.9,82.8c0,0.6-0.4,1-0.9,1H41.8c-0.5,0-0.9-0.4-0.9-1v-0.1c0-0.5,0.3-1,0.6-1c0.4,0,2.2-0.4,2.3-1l0.9-3.2
		c0.1-0.5,0.7-1,1.2-1h16c0.5,0,1.1,0.4,1.2,1l0.9,3.2c0.1,0.5,2,1,2.3,1c0.4,0,0.6,0.5,0.6,1V82.8z"/>
	<path fill="#7AC143" d="M57.8,71.5c-0.4-0.8-0.6-1.8-0.6-2.6l0-37.8h-6.7v3.3h2.7c0.5,0,0.8,0.4,0.8,0.9v25.9c0,0.5-0.4,0.9-0.8,0.9
		h-2.7v6.9c0,0.8-0.2,1.8-0.6,2.6H57.8z"/>
</svg>
