<?xml version="1.0" encoding="utf-8"?>
<svg version="1.1" id="icon" xmlns="http://www.w3.org/2000/svg" xmlns:xlink="http://www.w3.org/1999/xlink" x="0px" y="0px"
	 viewBox="0 0 514.7 673.7" style="enable-background:new 0 0 514.7 673.7;" xml:space="preserve">
<path fill="currentColor" d="M472.2,424.3c0-34.2-27.7-61.9-61.9-61.9c-34.2,0-61.9,27.7-61.9,61.9c0,27.4,17.9,50.6,42.6,58.8v29.7
	c0,44.4-36.1,80.5-80.5,80.5c-44.4,0-80.5-36.1-80.5-80.5V406c84.8-5.4,147.7-82.6,147.7-184.2c0-56.7,0-150.8-64.7-161.9v-0.4
	c0-11.5-9.3-20.8-20.8-20.8s-20.8,9.3-20.8,20.8V97c0,11.5,9.3,20.8,20.8,20.8c9.2,0,17-6,19.7-14.4C336,118,336,187,336,221.8
	c0,18.6-2.7,36.2-7.5,52.2H94.5C89.7,258,87,240.4,87,221.8c0-34.8,0.1-103.7,24.1-118.3c2.7,8.3,10.5,14.3,19.7,14.3
	c11.5,0,20.8-9.3,20.8-20.8V59.5c0-11.5-9.3-20.8-20.8-20.8c-11.5,0-20.8,9.3-20.8,20.8v0.4C45.4,71,45.3,165.1,45.3,221.8
	c0,99.7,60.6,176,143,183.9v107.1c0,67.4,54.8,122.2,122.2,122.2c67.4,0,122.2-54.8,122.2-122.2v-30.9
	C455.8,473,472.2,450.6,472.2,424.3z M220.5,364.9c-3.2,0-6.3,0.8-9,2.1c-2.7-1.3-5.8-2.1-9-2.1c-42.5,0-78.2-25.7-98.2-65.8h214.4
	C298.7,339.1,263,364.9,220.5,364.9z M410.3,460.9c-20.2,0-36.6-16.4-36.6-36.6c0-20.2,16.4-36.6,36.6-36.6
	c20.2,0,36.6,16.4,36.6,36.6C446.9,444.5,430.5,460.9,410.3,460.9z"/>
</svg>
