<?xml version="1.0" encoding="utf-8"?>
<!-- Generator: Adobe Illustrator 19.2.0, SVG Export Plug-In . SVG Version: 6.00 Build 0)  -->
<svg version="1.1" id="Layer_1" xmlns="http://www.w3.org/2000/svg" xmlns:xlink="http://www.w3.org/1999/xlink" x="0px" y="0px"
	 viewBox="0 0 74.2 79.8" enable-background="new 0 0 74.2 79.8" xml:space="preserve">
<path fill="#948A88" stroke="#FFFFFF" stroke-miterlimit="10" d="M37.7,56.4v-6h-5.3c0,0-3.3-1.3-3.3-3.7s0-22,0-22s0-4.7,6.3-4.7
	c4,0,29.7,0.1,29.7,0.1s4.7-0.1,4.7,4.5c0,2.3,0,21.7,0,21.7s-1.7,4.7-4.7,4.7s-21.3-0.3-21.3-0.3L37.7,56.4z"/>
<path fill="#948A88" d="M45.1,52.8v11.9c0,1-0.8,1.8-1.8,1.8h-35c-1,0-1.8-0.8-1.8-1.8V10.9c0-1,0.8-1.8,1.8-1.8h35
	c1,0,1.8,0.8,1.8,1.8v7.6h2V7.3c0-2.1-1.7-3.8-3.8-3.8h-35c-2.1,0-3.8,1.7-3.8,3.8v65.3c0,2.1,1.7,3.8,3.8,3.8h35
	c2.1,0,3.8-1.7,3.8-3.8V52.8H45.1z M15.4,5.4H36c0.5,0,0.8,0.4,0.8,0.8c0,0.5-0.4,0.8-0.8,0.8H15.4c-0.5,0-0.8-0.4-0.8-0.8
	C14.5,5.8,14.9,5.4,15.4,5.4z M25.8,74.4c-1.7,0-3.2-1.4-3.2-3.2c0-1.7,1.4-3.2,3.2-3.2c1.7,0,3.2,1.4,3.2,3.2
	C29,73,27.6,74.4,25.8,74.4z"/>
</svg>
