<?xml version="1.0" encoding="utf-8"?>
<!-- Generator: Adobe Illustrator 19.2.0, SVG Export Plug-In . SVG Version: 6.00 Build 0)  -->
<svg version="1.1" id="Capa_1" xmlns="http://www.w3.org/2000/svg" xmlns:xlink="http://www.w3.org/1999/xlink" x="0px" y="0px"
	 viewBox="0 0 247 430" style="enable-background:new 0 0 247 430;" xml:space="preserve">
<g fill="currentColor">
	<path d="M186.4,298.7c-12.3-8.4-38.4,52.1-54.3,41.8c-7.5-4.9-1.8-22.7,4.2-35.4c5-10.7,11.2-25.9,11.2-25.9s24.3-59.7,29.4-74.4
		c5.1-14.7,2.4-23.3-3-30.9c-24.8-28.6-77,3-87.1,10.1c-9,6.3-38,30.2-25.3,37.2c14,7.8,38.7-32,47-26.1c5.2,3.7-28.1,74-32.9,83.1
		c0,0-40.3,79.7-15.2,96.8c25.1,17.1,68.3-4.9,90.5-21.9c24.3-18.7,33.6-38.7,33.6-38.7S190.8,301.6,186.4,298.7z"/>
	<path d="M172.1,76.6c5.4,0.2,34.4,3.2,29,35.6c-5.3,32.4-33.7,31.1-41,31.4c-7.3,0.3-32.4,0.5-29.4-33.2
		C133.8,76.8,166.7,76.4,172.1,76.6z"/>
</g>
</svg>
