<?xml version="1.0" encoding="utf-8"?>
<svg version="1.1" xmlns="http://www.w3.org/2000/svg" xmlns:xlink="http://www.w3.org/1999/xlink" x="0px" y="0px"
	 viewBox="0 0 484 538" enable-background="new 0 0 484 538" xml:space="preserve">
	<path fill="none" stroke="#FFFFFF" stroke-width="2" stroke-linecap="round" stroke-linejoin="round" d="M29.1,319.8
		c0,0-1.5,5.4,1.5,5.8s8.1-21.2,8.1-21.2"/>
	<path fill="none" stroke="#030405" stroke-width="2" stroke-linecap="round" stroke-linejoin="round" d="M36,314.2
		c0,0-2,8.6,0.2,8.9c2.9,0.4,4.9-6.8,7.5-15.9s5.9-12.1,6.2-19c0.4-8.4-2.8-14.4-1.9-19.8s7.5-22.1,12-34s7.1-19.1,7.1-31
		s2.5-25.4,2.5-25.4"/>
	<path fill="none" stroke="#FFFFFF" stroke-width="2" stroke-linecap="round" stroke-linejoin="round" d="M23.9,301.9
		c0,0,7.5,5.4,17.6,1.2"/>
	<path fill="none" stroke="#FFFFFF" stroke-width="2" stroke-linecap="round" stroke-linejoin="round" d="M26.8,293.9
		c0,0,10,0.9,13.8-8.8"/>
	<path fill="none" stroke="#030405" stroke-width="2" stroke-linecap="round" stroke-linejoin="round" d="M67,151
		c0,0,1.4,20.5,3.9,36s4.4,27,3.4,34.4s-6.2,21.4-8,35.4s-2.5,44-0.1,70c2.4,26,7.6,43.9,8.5,49.8s0.9,4.6,0.8,8.1
		s-0.2,6.2,0.9,11.9c0.6,2.8,0,7.2-0.5,10.9s-3.6,21.4,4.8,48.8c8.7,28.3,9.1,29.9,10,35.4c1,6.2-1,9.3-1.4,12.6
		c-0.5,3.8-1.8,6.8-3.6,8.9c-1.5,1.8-4.2,6.2-4.2,6.2s-4,2.6-3.5,5.1c0.5,2.6,3,2.1,3,2.1"/>
	<path fill="none" stroke="#FFFFFF" stroke-width="2" stroke-linecap="round" stroke-linejoin="round" d="M83.8,519.8
		c0,0-0.2,1.1-1.1,2.1s-3.2,1.9-1.2,4.9c0,0,1.8,1.9,4.1,0.4"/>
	<path fill="none" stroke="#030405" stroke-width="2" stroke-linecap="round" stroke-linejoin="round" d="M88.8,518
		c0,0,0.1,0.9-0.9,2.1s-3.2,3.1-2.9,5.2s2.6,3.1,6,1.9"/>
	<path fill="none" stroke="#030405" stroke-width="2" stroke-linecap="round" stroke-linejoin="round" d="M93.5,517.6
		c0,0,0.5,1.4-0.5,3.2s-2.8,3.1-2.6,4.5s3.2,5.4,7.9,1.6"/>
	<path fill="none" stroke="#030405" stroke-width="2" stroke-linecap="round" stroke-linejoin="round" d="M201.3,304.8l4.4,17.9
		c1.4,4.5,4.1,3.4,4.4,0.6s-3.4-19.6-3.4-19.6s4.2,19.8,8.2,19.4c3.4-0.3-0.2-10.9-2-17.8s-3.1-11.2-2.2-12.6s2.6-0.6,6.5,3
		s6,3.6,7.4,2.5s-1.3-3.7-4.8-7.8c-4-4.6-4.9-8.9-7.6-12.4c-3-3.8-6.1-4.6-8.9-7s-3.8-6.2-5.2-18.2s-1.4-36.2-3.9-47.1
		s-4.9-15.8-6.4-32s1.6-27.9-3.4-45.5s-25.9-21.6-29-22.6s-16.7-6.5-19.5-12.7c-2-4.4-0.8-8.3-0.1-9.7c0.7-1.4,1.4-2,3-1.7
		c1.5,0.3,7.5,1,9.6-2.1c2.1-3.1-0.7-6.5-1-7.9c-0.3-1.4,1.4-1.5,1.8-2.2c1-1.7-1.3-3.5-1.3-3.5"/>
	<path fill="none" stroke="#FFFFFF" stroke-width="2" stroke-linecap="round" stroke-linejoin="round" d="M204.9,319.8
		c0,0,1.5,5.4-1.5,5.8s-8.1-21.2-8.1-21.2"/>
	<path fill="none" stroke="#030405" stroke-width="2" stroke-linecap="round" stroke-linejoin="round" d="M198,314.2
		c0,0,2,8.6-0.2,8.9c-2.9,0.4-4.9-6.8-7.5-15.9s-5.9-12.1-6.2-19c-0.4-8.4,2.8-14.4,1.9-19.8s-7.5-22.1-12-34s-7.1-19.1-7.1-31
		s-2.5-25.4-2.5-25.4"/>
	<path fill="none" stroke="#FFFFFF" stroke-width="2" stroke-linecap="round" stroke-linejoin="round" d="M210.2,301.9
		c0,0-7.5,5.4-17.6,1.2"/>
	<path fill="none" stroke="#FFFFFF" stroke-width="2" stroke-linecap="round" stroke-linejoin="round" d="M207.3,293.9
		c0,0-10,0.9-13.8-8.8"/>
	<path fill="none" stroke="#FFFFFF" stroke-width="2" stroke-linecap="round" stroke-linejoin="round" d="M150.3,519.8
		c0,0,0.2,1.1,1.1,2.1s3.2,1.9,1.2,4.9c0,0-1.8,1.9-4.1,0.4"/>
	<path fill="none" stroke="#030405" stroke-width="2" stroke-linecap="round" stroke-linejoin="round" d="M145.3,518
		c0,0-0.1,0.9,0.9,2.1s3.2,3.1,2.9,5.2s-2.6,3.1-6,1.9"/>
	<path fill="none" stroke="#030405" stroke-width="2" stroke-linecap="round" stroke-linejoin="round" d="M140.5,517.6
		c0,0-0.5,1.4,0.5,3.2s2.8,3.1,2.6,4.5s-3.2,5.4-7.9,1.6"/>
	<path fill="none" stroke="#030405" stroke-width="2" stroke-linecap="round" stroke-linejoin="round" d="M146.6,65.8
		c0,0,2.1-0.3,3.2-1.8c1.1-1.5-1.4-2.7-1.8-5.2c0,0,0.6-0.2,2.7-0.4c2.5-0.3,4.8-2,4.4-3.9c-0.4-2-4.9-7.8-6.9-12.1
		c-1.4-3,0-4.3,0.4-5.6c0.6-1.8-0.4-3.5-1.7-7.2s-7.6-21.6-30.1-21.1S80.3,31.1,89.3,54.9c5.3,14,13.6,18.8,14,26.9
		c0.2,4.4-1.7,8.8-4.8,12.3c-3,3.5-16.8,10.4-19.9,11.4s-24,5-29,22.6s-1.9,29.2-3.4,45.5s-3.9,21.1-6.4,32s-2.4,35.1-3.9,47.1
		s-2.5,15.9-5.2,18.2s-5.9,3.2-8.9,7c-2.8,3.5-3.6,7.8-7.6,12.4c-3.5,4-6.1,6.6-4.8,7.8c1.4,1.1,3.5,1.1,7.4-2.5s5.6-4.4,6.5-3
		s-0.5,5.8-2.2,12.6s-5.4,17.4-2,17.8c4,0.4,8.2-19.4,8.2-19.4s-3.6,16.9-3.4,19.6s3,3.9,4.4-0.6l4.4-17.9"/>
	<path fill="none" stroke="#030405" stroke-width="2" stroke-linecap="round" stroke-linejoin="round" d="M167,151
		c0,0-1.4,20.5-3.9,36s-4.4,27-3.4,34.4s6.2,21.4,8,35.4s2.5,44,0.1,70s-7.6,43.9-8.5,49.8s-0.9,4.6-0.8,8.1s0.2,6.2-0.9,11.9
		c-0.6,2.8,0,7.2,0.5,10.9s3.6,21.4-4.8,48.8c0,0-8.9,29.9-9.8,35.4c-1,6.2,1,9.3,1.4,12.6c0.5,3.8,1.8,6.8,3.6,8.9
		c1.5,1.8,4.2,6.2,4.2,6.2s4,2.6,3.5,5.1c-0.5,2.6-3,2.1-3,2.1"/>
	<path fill="none" stroke="#030405" stroke-width="2" stroke-linecap="round" stroke-linejoin="round" d="M133.6,517.5
		c0,0-0.2,1.2,0.8,2.9s2.5,3.3,2,5.4c-0.8,3-6.3,5.3-10,1.3c0,0-1.5-1.5-1.9-4.1c-0.4-2.5-0.1-2.9-0.7-5.3c-0.9-4,1.6-6.7,1.2-10
		c-0.4-4.3,0.3-8.1,2.2-14c1.1-3.4,0.8-9.2,0.4-15.9c-0.7-12.2-3.9-21.5-4.3-38l0-1.3c-0.4-16.5,5-29,5.1-35.4s-1.4-6.9-0.8-16.1
		s0.2-9.6-1.5-20.4c-4.9-31.4-7.9-76.2-8.5-81.5c0,0,0.1-1.4-0.8-1.4s-0.7,1.4-0.7,1.4c-0.6,5.2-3.6,50.1-8.5,81.5
		c-1.7,10.7-2.1,11.1-1.5,20.4s-0.9,9.8-0.8,16.1s5.5,18.9,5.1,35.4s-3.3,27.1-4,39.4c-0.4,6.6-0.7,12.4,0.4,15.9
		c1.9,5.9,2.7,9.7,2.2,14c-0.3,3.3,2.1,6,1.2,10c-0.5,2.4-0.3,2.8-0.7,5.3c-0.4,2.6-1.9,4.1-1.9,4.1c-3.7,4-9.2,1.7-10-1.3
		c-0.5-2.1,1-3.8,2-5.4c1-1.6,0.7-2.9,0.7-2.9"/>
	<path fill="none" stroke="#FFFFFF" stroke-width="2" stroke-linecap="round" stroke-linejoin="round" d="M457.9,319.8
		c0,0,1.5,5.4-1.5,5.8s-8.1-21.2-8.1-21.2"/>
	<path fill="none" stroke="#030405" stroke-width="2" stroke-linecap="round" stroke-linejoin="round" d="M451,314.2
		c0,0,2,8.6-0.2,8.9c-2.9,0.4-4.9-6.8-7.5-15.9s-5.9-12.1-6.2-19c-0.4-8.4,2.8-14.4,1.9-19.8s-7.5-22.1-12-34s-7.1-19.1-7.1-31
		s-2.5-25.4-2.5-25.4"/>
	<path fill="none" stroke="#030405" stroke-width="2" stroke-linecap="round" stroke-linejoin="round" d="M339.2,65.6
		c0,0-2.2,1.8-1.3,3.5c0.5,0.8,2.1,0.8,1.8,2.2c-0.3,1.4-3.1,4.8-1,7.9c2.1,3.1,6.7,2.9,8.8,2.6c0,0,3.4-0.7,4.2,3"/>
	<path fill="none" stroke="#030405" stroke-width="2" stroke-linecap="round" stroke-linejoin="round" d="M285.8,304.8l-4.4,17.9
		c-1.4,4.5-4.1,3.4-4.4,0.6s3.4-19.6,3.4-19.6s-4.2,19.8-8.2,19.4c-3.4-0.3,0.2-10.9,2-17.8s3.1-11.2,2.2-12.6s-2.6-0.6-6.5,3
		s-6,3.6-7.4,2.5s1.3-3.7,4.8-7.8c4-4.6,4.9-8.9,7.6-12.4c3-3.8,6.1-4.6,8.9-7s3.8-6.2,5.2-18.2s1.4-36.2,3.9-47.1s4.9-15.8,6.4-32
		s-1.6-27.9,3.4-45.5s25.9-21.6,29-22.6s12.9-4.5,17.8-11.9C353.6,87.5,351,79,351,79"/>
	<path fill="none" stroke="#FFFFFF" stroke-width="2" stroke-linecap="round" stroke-linejoin="round" d="M282.1,319.8
		c0,0-1.5,5.4,1.5,5.8s8.1-21.2,8.1-21.2"/>
	<path fill="none" stroke="#030405" stroke-width="2" stroke-linecap="round" stroke-linejoin="round" d="M289,314.2
		c0,0-2,8.6,0.2,8.9c2.9,0.4,4.9-6.8,7.5-15.9s5.9-12.1,6.2-19c0.4-8.4-2.8-14.4-1.9-19.8s7.5-22.1,12-34s7.1-19.1,7.1-31
		s2.4-25.2,2.4-25.2"/>
	<path fill="none" stroke="#030405" stroke-width="2" stroke-linecap="round" stroke-linejoin="round" d="M340.5,65.8
		c0,0-2.1-0.3-3.2-1.8c-1.1-1.5,1.4-2.7,1.8-5.2c0,0-0.6-0.2-2.7-0.4c-2.5-0.3-4.8-2-4.4-3.9c0.4-2,4.9-7.8,6.9-12.1
		c1.4-3,0-4.3-0.4-5.6c-0.6-1.8,0.4-3.5,1.7-7.2s7.6-21.6,30.1-21.1s36.5,22.8,27.5,46.5c-5.3,14-13.6,18.8-14,26.9
		c-0.2,4.4,1.7,8.8,4.8,12.3c3,3.5,16.8,10.4,19.9,11.4s24,5,29,22.6s1.9,29.2,3.4,45.5s3.9,21.1,6.4,32s2.4,35.1,3.9,47.1
		s2.5,15.9,5.2,18.2s5.9,3.2,8.9,7c2.8,3.5,3.6,7.8,7.6,12.4c3.5,4,6.1,6.6,4.8,7.8s-3.5,1.1-7.4-2.5s-5.6-4.4-6.5-3
		s0.5,5.8,2.2,12.6s5.3,17.4,2,17.8c-4,0.4-8.2-19.4-8.2-19.4s3.6,16.9,3.4,19.6s-3,3.9-4.4-0.6l-4.4-17.9"/>
	<path fill="none" stroke="#030405" stroke-width="2" stroke-linecap="round" stroke-linejoin="round" d="M420,151
		c0,0-1.4,20.5-3.9,36s-4.4,27-3.4,34.4s6.2,21.4,8,35.4s2.5,44,0.1,70s-7.6,43.9-8.5,49.8s-0.9,4.6-0.8,8.1s0.2,6.2-0.9,11.9
		c-0.6,2.8,0,7.2,0.5,10.9s3.6,21.4-4.8,48.8c0,0-9.2,30.6-10,36.1c-1,6.2,1,9.3,1.4,12.6c0.5,3.8,1.8,6.8,3.6,8.9
		c1.5,1.8,4.2,6.2,4.2,6.2s4,2.6,3.5,5.1c-0.5,2.6-2.4,2.7-2.4,2.7s-2.4,1.7-12.7,1.7c-5.7,0-12.7,0.7-15.5-2.9c0,0-1.2-1.2-1.5-2.9
		c-0.5-2.5-0.1-2.9-0.7-5.3c-0.9-4,1.6-6.7,1.2-10c-0.4-4.3,0.3-8.1,2.2-14c1.1-3.4,0.8-9.9,0.4-16.6l0,0c-0.7-12.2-3.6-22.9-4-39.4
		s5-29,5.1-35.4s-1.4-6.9-0.8-16.1s0.2-9.6-1.5-20.4c-4.9-31.4-7.9-76.2-8.5-81.5c0,0,0.1-1.4-0.8-1.4c-0.9,0-0.8,1.4-0.8,1.4
		c-0.6,5.2-3.6,50.1-8.5,81.5c-1.7,10.7-2.1,11.1-1.5,20.4s-0.9,9.8-0.8,16.1s5.5,18.9,5.1,35.4l0,1.3c-0.4,16.5-3.6,25.8-4.3,38
		c-0.4,6.6-0.7,12.4,0.4,15.9c1.9,5.9,2.7,9.7,2.2,14c-0.3,3.3,2.1,6,1.2,10c-0.5,2.4-0.2,2.8-0.7,5.3c-0.3,1.8-1.5,2.9-1.5,2.9
		c-2.9,3.5-9.8,2.9-15.5,2.9c-10.3,0-12.7-1.7-12.7-1.7s-1.9-0.1-2.4-2.7c-0.5-2.5,3.5-5.1,3.5-5.1s2.8-4.5,4.2-6.2
		c1.8-2.1,3.1-5.2,3.6-8.9c0.4-3.3,2.4-6.3,1.4-12.6c-0.9-5.4-9.8-35.4-9.8-35.4c-8.4-27.4-5.2-45.1-4.8-48.8s1.1-8.1,0.5-10.9
		c-1.1-5.6-1-8.4-0.9-11.9s0.1-2.2-0.8-8.1s-6.1-23.8-8.5-49.8s-1.6-56,0.1-70s7-28,8-35.4s-0.9-18.9-3.4-34.4s-3.9-36-3.9-36"/>
	<g fill="#F2CF52" stroke="#030405" stroke-width="2" stroke-linejoin="round">
		<path  d="M85.3,256.1c0,0-8.1-5.7-18.2-4.5
			c0,0,2.3-10.8,4.8-20c2.6-9.6,2.6-12.7,2.6-12.7s5.6,0.8,14.1-3.7l0,0c7.5-4.2,17.6-6.7,28.8-6.7c11,0,21.1,2.5,28.6,6.6l0,0
			c9.6,4.7,13.8,3.7,13.8,3.7s0,4.5,2.7,13.2c3.2,10.3,4.7,19.4,4.7,19.4c-10.2-1-18,4.8-18,4.8l0,0c-7.7,5.2-19.1,8.5-31.7,8.5
			C104.5,264.9,93,261.5,85.3,256.1L85.3,256.1z"/>
		<ellipse fill="#FFFFFF" cx="117.4" cy="228.1" rx="12.9" ry="7.7"/>
		<ellipse  cx="148.7" cy="330.9" rx="18.1" ry="37.2"/>
		<ellipse  cx="85.2" cy="330.9" rx="18.1" ry="37.2"/>
		<path  d="M320,251.9c0,0,1.6-8.3,3.5-15.4
			c1.7-6.2,3.6-12.7,3.9-17.4c0,0,8,7.9,6,18.8C331.2,250,320,251.9,320,251.9z"/>
		<path  d="M420.1,252c0,0-1.5-8.1-3.5-15.2
			c-1.7-6.2-3.4-12.6-4-17.7c0,0-7.2,8-5.7,18.5C408.7,250,420.1,252,420.1,252z"/>
		<path fill="none" d="M115.4,225.8c0,0,1.9,2.8,4,0"/>
		<path  d="M187.1,153.9c0,0-9.2,5.3-8.1,17.7
			c1.1,12.4,10.3,15.6,10.3,15.6S186,163.1,187.1,153.9z"/>
		<path  d="M46.2,153.9c0,0,9.2,5.3,8.1,17.7
			c-1.1,12.4-10.3,15.6-10.3,15.6S47.3,163.1,46.2,153.9z"/>
		<path  d="M440.3,154c0,0-9.2,5.3-8.1,17.7
			c1.1,12.4,10.3,15.6,10.3,15.6S439.3,163.2,440.3,154z"/>
		<path  d="M299.9,153.9c0,0,9.2,5.3,8.1,17.7
			c-1.1,12.4-10.3,15.6-10.3,15.6S300.9,163.1,299.9,153.9z"/>
	</g>
	<path fill="none" stroke="#030405" stroke-width="2" stroke-linecap="round" stroke-linejoin="round" d="M331.8,284.7
		c0,0,19.7,8.8,38.2-0.9"/>
	<path fill="none" stroke="#030405" stroke-width="2" stroke-linecap="round" stroke-linejoin="round" d="M370,283.7
		c0,0,15.7,10.2,38.3-0.2"/>
</svg>
