<?xml version="1.0" encoding="utf-8"?>
<!-- Generator: Adobe Illustrator 16.0.4, SVG Export Plug-In . SVG Version: 6.00 Build 0)  -->
<!DOCTYPE svg PUBLIC "-//W3C//DTD SVG 1.1//EN" "http://www.w3.org/Graphics/SVG/1.1/DTD/svg11.dtd">
<svg viewBox="0 0 86.186 63.05">
	<path fill="currentColor" d="M77.545,38.512c5.331-4.078,8.641-9.758,8.641-16.051C86.186,10.055,73.325,0,57.46,0
		C48.1,0,39.788,3.5,34.542,8.916c15.09,2.217,26.569,12.887,26.569,25.686c0,3.652-0.953,7.125-2.641,10.285
		c0.408-0.012,0.82-0.014,1.224-0.039l-0.022,0.01c0,0,3.504-0.285,4.985,0.783c3.66,2.633,10.116,6.299,17.108,4.998
		c0,0,0.756-0.131,0.27-0.592C81.01,49.066,72.479,44.014,77.545,38.512z"/>
	<path fill="currentColor" d="M28.726,12.141C12.861,12.141,0,22.193,0,34.602c0,6.291,3.31,11.973,8.641,16.051
		c5.066,5.502-3.464,10.555-4.489,11.535c-0.486,0.461,0.269,0.592,0.269,0.592c6.993,1.301,13.449-2.367,17.108-4.998
		c1.482-1.07,4.986-0.785,4.986-0.785l-0.023-0.008c0.737,0.045,1.484,0.07,2.234,0.07c15.869,0,28.731-10.053,28.731-22.457
		C57.457,22.193,44.595,12.141,28.726,12.141z"/>
</svg>
