<?xml version="1.0" encoding="utf-8"?>
<svg version="1.1" id="Layer_1" xmlns="http://www.w3.org/2000/svg" xmlns:xlink="http://www.w3.org/1999/xlink" x="0px" y="0px"
	 viewBox="0 0 29.5 65.5" style="enable-background:new 0 0 29.5 65.5;" xml:space="preserve">
	<g fill="currentColor">
		<path class="st0" d="M14.7,2.6c3.4,1.5,5.7-1.2,5.7,0.4l0,3h-3.2l-4.9,0L9.1,6V3C9.1,1.4,12.2,1.5,14.7,2.6z"/>
		<path class="st0" d="M27.8,62.7c0,0.6-0.4,1-0.9,1H2.7c-0.5,0-0.9-0.4-0.9-1v-0.1c0-0.5,0.3-1,0.6-1c0.4,0,2.2-0.4,2.3-1l0.9-3.2
			c0.1-0.5,0.7-1,1.2-1h16c0.5,0,1.1,0.4,1.2,1l0.9,3.2c0.1,0.5,2,1,2.3,1c0.4,0,0.6,0.5,0.6,1V62.7z"/>
		<path class="st0" d="M7.1,53.1l1.5-2.6c0.2-0.4,0.4-1.2,0.4-1.7V38.2v-1.5v-1.5V9.4c0-0.5,0.4-0.9,0.9-0.9l9.6,0
			c0.5,0,0.8,0.4,0.8,0.9l0,25.7v1.5v1.5v10.6c0,0.5,0.2,1.3,0.4,1.7l1.5,2.6c0.2,0.4,0.1,0.8-0.4,0.8l-14.4,0
			C7.1,53.9,6.9,53.5,7.1,53.1z M18.7,51.4c-0.4-0.8-0.6-1.8-0.6-2.6l0-37.8h-6.7v3.3h2.7c0.5,0,0.8,0.4,0.8,0.9V41
			c0,0.5-0.4,0.9-0.8,0.9h-2.7v6.9c0,0.8-0.2,1.8-0.6,2.6H18.7z"/>
	</g>
</svg>
