<svg viewBox="0 0 29.4 41.9">
<path fill="currentColor" d="M16.5,4.7c1.7,0.1,3.4,0.4,5.1,0.9c1.8,0.5,3.3,1.3,4.7,2.5c-1.4,1.6-2.9,3.2-4.3,4.8c-0.7-0.7-1.6-1.3-2.6-1.7
	s-2-0.6-2.9-0.7v7c1.1,0.4,2.3,0.7,3.5,1.2c1.2,0.4,2.2,1,3.2,1.8c1,0.7,1.8,1.6,2.4,2.7c0.6,1.1,0.9,2.4,0.9,4c0,1.6-0.3,3-0.9,4.2
	c-0.6,1.2-1.3,2.2-2.3,3s-2,1.4-3.3,1.8c-1.2,0.4-2.5,0.6-3.8,0.7v3.2h-3.3v-3.2c-1.9-0.1-3.8-0.4-5.8-1.1s-3.6-1.7-5.1-3
	c0.8-0.8,1.5-1.6,2.3-2.4c0.8-0.8,1.5-1.6,2.3-2.4C7,28.4,7.4,28.8,8,29.2c0.5,0.4,1.1,0.7,1.6,0.9c0.6,0.3,1.1,0.5,1.7,0.6
	c0.6,0.2,1.1,0.2,1.6,0.2v-7.7c-1.3-0.4-2.5-0.7-3.6-1.2c-1.2-0.4-2.2-1-3.1-1.7s-1.6-1.6-2.1-2.6S3.3,15.4,3.3,14
	c0-1.4,0.3-2.7,0.9-3.9C4.8,9,5.5,8,6.5,7.2c0.9-0.8,2-1.4,3.2-1.8C10.9,5,12,4.7,13.2,4.7v-3h3.2L16.5,4.7L16.5,4.7z M13.3,10.4
	c-0.8,0.1-1.5,0.4-2.1,0.9s-0.9,1.3-0.9,2.2c0,0.9,0.3,1.7,0.8,2.2c0.6,0.5,1.3,0.9,2.2,1.1V10.4z M16.4,30.9c1-0.1,1.8-0.4,2.4-1
	s0.9-1.4,0.9-2.4c0-1-0.3-1.8-0.9-2.3s-1.4-0.9-2.3-1.2v6.9H16.4z"/>
</svg>
