<?xml version="1.0" encoding="utf-8"?>
<svg version="1.1" id="Layer_1" xmlns="http://www.w3.org/2000/svg" xmlns:xlink="http://www.w3.org/1999/xlink" x="0px" y="0px"
	 viewBox="0 0 44.4 47.9" enable-background="new 0 0 44.4 47.9" xml:space="preserve">
<g fill="currentColor">
	<path d="M28.9,10.4c0,0-0.1-0.8-0.7-0.6l-8,5.2c0,0,0,0,0,0c-0.7,0.4-1.1,1.2-1.1,2.1c0,1.4,1.1,2.5,2.5,2.5c0.9,0,1.7-0.5,2.1-1.2
		h0L28.9,10.4z"/>
	<path d="M22.2,1.9C14,1.9,7.3,8.6,7.3,16.8c0,8.2,6.7,14.9,14.9,14.9c8.2,0,14.9-6.7,14.9-14.9C37.1,8.6,30.4,1.9,22.2,1.9
		 M22.2,29.5c-7,0-12.7-5.7-12.7-12.7S15.2,4.1,22.2,4.1c7,0,12.7,5.7,12.7,12.7S29.2,29.5,22.2,29.5"/>
	<path d="M38.5,19.6c-0.9,8.2-7.9,14.6-16.4,14.6c-8.5,0-15.5-6.4-16.3-14.6c-2,1.5-3.3,3.9-3.3,6.6v12.7c0,4.6,1.8,6.3,6.3,6.3
		h26.7c4.6,0,6.3-1.8,6.3-6.3V26.2C41.9,23.5,40.6,21.1,38.5,19.6"/>
</g>
</svg>
