<?xml version="1.0" encoding="utf-8"?>
<!-- Generator: Adobe Illustrator 19.2.0, SVG Export Plug-In . SVG Version: 6.00 Build 0)  -->
<svg version="1.1" id="Icon" xmlns="http://www.w3.org/2000/svg" xmlns:xlink="http://www.w3.org/1999/xlink" x="0px" y="0px"
	 viewBox="0 0 54 56" style="enable-background:new 0 0 54 56;" xml:space="preserve">
<path fill="currentColor" d="M36,16c0-8.8-8.1-16-18-16S0,7.2,0,16c0,4.3,2,8.4,5.4,11.4L4,32.8c-0.1,0.4,0,0.8,0.4,1C4.6,33.9,4.8,34,5,34
	c0.2,0,0.4,0,0.5-0.1l5.3-3.2c2.3,0.9,4.7,1.3,7.2,1.3C27.9,32,36,24.8,36,16z M18,9c-2.4,0-3.8,1.2-3.8,2c0,1.5-0.6,2.2-1.7,2.2
	s-1.7-0.7-1.7-2.2c0-3.8,3.7-5.2,7.2-5.2c2.7,0,7.2,0.7,7.2,5.7c0,2.1-1.6,3.3-3.1,4.3c-1,0.7-1.9,1.4-1.9,2.2c0,1-0.2,2.2-2.2,2.2
	S15.8,19,15.8,18c0-1.6,1.4-2.6,2.8-3.5c0.3-0.2,0.7-0.5,1.1-0.7c1.1-0.7,2.3-1.4,2.3-2.3C21.9,9.7,20.7,9,18,9z M15.9,24
	c0-1.2,0.9-2.1,2.1-2.1s2.1,0.9,2.1,2.1s-0.9,2.1-2.1,2.1S15.9,25.2,15.9,24z M48.6,49.4C52,46.4,54,42.3,54,38
	c0-8.4-7.1-15.2-16.4-15.9c-0.2,0-0.4,0-0.6,0.1c-2.7,6.8-9.8,11.7-18.2,12c-0.2,0.1-0.3,0.3-0.4,0.5C18.1,35.8,18,36.9,18,38
	c0,8.8,8.1,16,18,16c2.5,0,4.9-0.4,7.2-1.3l5.3,3.2C48.6,56,48.8,56,49,56h0c0.6,0,1-0.4,1-1c0-0.2,0-0.3-0.1-0.4L48.6,49.4z M38,46
	c0,0.6-0.4,1-1,1h-2c-0.6,0-1-0.4-1-1V36c0-0.6,0.4-1,1-1h2c0.6,0,1,0.4,1,1V46z M36,33.1c-1.2,0-2.1-0.9-2.1-2.1
	c0-1.2,0.9-2.1,2.1-2.1s2.1,0.9,2.1,2.1C38.1,32.2,37.2,33.1,36,33.1z"/>
</svg>
