<svg viewBox="0 0 93.2 125.5">
<g fill="currentColor">
	<path d="M86.7,14.1H68.3v4v4h14.4v92.6H10.6V22.1H25v-4v-4H6.6c-2.2,0-4,1.8-4,4v100.6c0,2.2,1.8,4,4,4h80.1
		c2.2,0,4-1.8,4-4V18.1C90.7,15.9,88.9,14.1,86.7,14.1z"/>
	<path d="M30.5,26.4h32.3c1.4,0,2.5-1.1,2.5-2.5v-1.8v-4v-4v-2.4c0-1.4-1.1-2.5-2.5-2.5h-8.9c0,0,0-0.1,0-0.1
		c0-0.5,0-1-0.1-1.4c-0.1-0.5-0.3-1-0.5-1.5c-1.1-2.5-3.7-4.3-6.6-4.3S41.1,3.7,40,6.2c-0.2,0.5-0.4,1-0.5,1.5
		c-0.1,0.5-0.1,0.9-0.1,1.4c0,0,0,0.1,0,0.1h-8.9c-1.4,0-2.5,1.1-2.5,2.5v2.4v4v4v1.8C28,25.3,29.1,26.4,30.5,26.4z M42.4,9.2
		c0-0.5,0.1-1,0.3-1.4c0.2-0.6,0.5-1.1,0.9-1.5c0.8-0.8,1.9-1.3,3.1-1.3s2.3,0.5,3.1,1.3c0.4,0.4,0.7,0.9,0.9,1.5
		c0.2,0.4,0.3,0.9,0.3,1.4c0,0,0,0.1,0,0.1c0,2.3-1.9,4.2-4.2,4.2S42.5,11.6,42.4,9.2C42.4,9.2,42.4,9.2,42.4,9.2z"/>
	<path d="M39.1,35.9c-1-1-2.5-1-3.5,0l-9.4,9.4l-3.8-3.8c-1-1-2.5-1-3.5,0c-1,1-1,2.5,0,3.5l7.3,7.3l12.9-12.9
		C40.1,38.4,40.1,36.9,39.1,35.9z"/>
	<path d="M39.1,62.5c-1-1-2.5-1-3.5,0l-9.4,9.4L22.5,68c-1-1-2.5-1-3.5,0c-1,1-1,2.5,0,3.5l7.3,7.3l12.9-12.9
		C40.1,65,40.1,63.4,39.1,62.5z"/>
	<path d="M35.7,89l-9.4,9.4l-3.8-3.8c-1-1-2.5-1-3.5,0c-1,1-1,2.5,0,3.5l7.3,7.3l12.9-12.9c1-1,1-2.5,0-3.5
		C38.2,88,36.6,88,35.7,89z"/>
	<path d="M72.5,41.3H47c-1.3,0-2.4,1.1-2.4,2.4s1.1,2.4,2.4,2.4h25.5c1.3,0,2.4-1.1,2.4-2.4S73.8,41.3,72.5,41.3z"/>
	<path d="M72.5,67.8H47c-1.3,0-2.4,1.1-2.4,2.4s1.1,2.4,2.4,2.4h25.5c1.3,0,2.4-1.1,2.4-2.4S73.8,67.8,72.5,67.8z"/>
	<path d="M72.5,94.4H47c-1.3,0-2.4,1.1-2.4,2.4s1.1,2.4,2.4,2.4h25.5c1.3,0,2.4-1.1,2.4-2.4S73.8,94.4,72.5,94.4z"/>
</g>
</svg>
