<?xml version="1.0" encoding="utf-8"?>
<!-- Generator: Adobe Illustrator 19.2.0, SVG Export Plug-In . SVG Version: 6.00 Build 0)  -->
<svg version="1.1" id="Isolation_Mode" xmlns="http://www.w3.org/2000/svg" xmlns:xlink="http://www.w3.org/1999/xlink" x="0px"
	 y="0px" viewBox="0 0 1026 1026" style="enable-background:new 0 0 1026 1026;" xml:space="preserve">
	<path fill="none" stroke="currentColor" stroke-width="40" class="st0" d="M872.8,505.5c0.8,198.7-159.7,360.5-358.4,361.3C315.7,867.5,154,707,153.2,508.3
		c-0.8-198.6,159.7-360.4,358.4-361.1C710.3,146.3,872,306.9,872.8,505.5z"/>
	<path fill="currentColor" d="M472.8,252.2c-12.9,0.1-23.1,10.6-23,24l1.4,379.9c0.3,83.1,55,100.3,100.9,100.1c19.9-0.1,36.7-3.3,52.9-9.9
		c8.3-3.3,13.3-10,13.2-17.9c0-10.7-9.1-19.6-19.8-19.6c-0.8,0-2.9,0.5-4.9,1.1c-5.6,1.5-15,4-28.7,4c-44,0.2-66.4-21.8-66.6-65.3
		l-0.8-220.1l99.9-0.3c11.5-0.1,21-9.3,21-20.4c-0.1-10.9-9.9-20.3-21.1-20.3l-100,0.4l-0.3-111.9
		C496.8,263.4,485.5,252.2,472.8,252.2z"/>
</svg>
