<?xml version="1.0" encoding="utf-8"?>
<svg version="1.1" id="Isolation_Mode" xmlns="http://www.w3.org/2000/svg" xmlns:xlink="http://www.w3.org/1999/xlink" x="0px"
	 y="0px" viewBox="0 0 1026 1026" style="enable-background:new 0 0 1026 1026;" xml:space="preserve">
<circle fill="currentColor" cx="513" cy="507" r="382"/>
<path fill="#FFFFFF" d="M472.8,252.2c-12.9,0.1-23.1,10.6-23,24l1.4,379.9c0.3,83.1,55,100.3,100.9,100.1c19.9-0.1,36.7-3.3,52.9-9.9
	c8.3-3.3,13.3-10,13.2-17.9c0-10.7-9.1-19.6-19.8-19.6c-0.8,0-2.9,0.5-4.9,1.1c-5.6,1.5-15,4-28.7,4c-44,0.2-66.4-21.8-66.6-65.3
	l-0.8-220.1l99.9-0.3c11.5-0.1,21-9.3,21-20.4c-0.1-10.9-9.9-20.3-21.1-20.3l-100,0.4L496.9,276
	C496.8,263.4,485.5,252.2,472.8,252.2z"/>
</svg>
