<?xml version="1.0" encoding="utf-8"?>
<!-- Generator: Adobe Illustrator 19.2.0, SVG Export Plug-In . SVG Version: 6.00 Build 0)  -->
<svg version="1.1" id="Layer_1" xmlns="http://www.w3.org/2000/svg" xmlns:xlink="http://www.w3.org/1999/xlink" x="0px" y="0px"
	 viewBox="0 0 107.6 107.6" style="enable-background:new 0 0 107.6 107.6;" xml:space="preserve">
<path fill="#FFFFFF" d="M53.8,0.5C24.4,0.5,0.5,24.4,0.5,53.8s23.9,53.3,53.3,53.3c29.4,0,53.3-23.9,53.3-53.3S83.3,0.5,53.8,0.5"/>
<path fill="#FFCA2F" d="M54,11c-23.6,0-42.8,19.2-42.8,42.9c0,23.6,19.2,42.8,42.8,42.8c23.6,0,42.9-19.2,42.9-42.8
	C96.8,30.2,77.6,11,54,11z"/>
<path fill="#FFCA2F" d="M53.8,100.3c-25.7,0-46.5-20.9-46.5-46.5c0-25.7,20.9-46.5,46.5-46.5c25.7,0,46.5,20.9,46.5,46.5
	C100.3,79.5,79.5,100.3,53.8,100.3 M53.8,0.5C24.4,0.5,0.5,24.4,0.5,53.8s23.9,53.3,53.3,53.3c29.4,0,53.3-23.9,53.3-53.3
	S83.3,0.5,53.8,0.5"/>
<path fill="#FFFFFF" d="M78.2,28h-7.7v0.7c0,3.3-2.8,6-6.3,6c-1.8,0-3.3-0.7-4.5-1.7c-1.1-1.1-1.9-2.6-1.9-4.2V28h-7.8v0.7
	c0,3.3-2.8,6-6.3,6c-1.8,0-3.3-0.7-4.5-1.7c-1.1-1.1-1.9-2.6-1.9-4.2V28h-8.1c-2.9,0-5.2,2.3-5.2,5.2v41.6c0,2.9,2.3,5.2,5.2,5.2
	h48.8c2.9,0,5.2-2.3,5.2-5.2V33.2C83.4,30.4,81.1,28,78.2,28z"/>
<path fill="#FFFFFF" d="M61.2,21.8c0-1.5,1.3-2.8,2.9-2.8c0.8,0,1.5,0.3,2.1,0.8c0.5,0.5,0.9,1.2,0.9,1.9v6.6c0,1.5-1.3,2.7-2.9,2.7
	c-0.8,0-1.5-0.3-2.1-0.8c-0.5-0.5-0.9-1.2-0.9-1.9V21.8z"/>
<path fill="#FFFFFF" d="M40.7,21.8c0-1.5,1.3-2.8,2.9-2.8c0.8,0,1.5,0.3,2.1,0.8c0.5,0.5,0.9,1.2,0.9,1.9v6.6c0,1.5-1.3,2.7-2.9,2.7
	c-0.8,0-1.5-0.3-2.1-0.8c-0.5-0.5-0.9-1.2-0.9-1.9V21.8z"/>
<path fill="#FFCA2F" d="M78.3,36.9h-49c-1.3,0-2.4,1-2.4,2.3v35c0,1.3,1.1,2.3,2.4,2.3h49c1.3,0,2.4-1,2.4-2.3v-35
	C80.7,37.9,79.6,36.9,78.3,36.9z"/>
<polygon fill="#FFCA2F" points="69.5,48.1 69.5,41 76.6,41 76.6,48.1 76.6,48.1 		"/>
<path fill="#FFFFFF" d="M75.9,41.8v5.6h-5.6v-5.6H75.9 M76.6,40.2h-7.1c-0.5,0-0.8,0.4-0.8,0.8v7.1c0,0.5,0.4,0.8,0.8,0.8h7.1
	c0.5,0,0.8-0.4,0.8-0.8V41C77.4,40.6,77.1,40.2,76.6,40.2L76.6,40.2z"/>
<polygon fill="#FFCA2F" points="30.9,48.1 30.9,41 38,41 38.1,48.1 38,48.1 		"/>
<path fill="#FFFFFF" d="M37.3,41.8v5.6h-5.6v-5.6H37.3 M38,40.2h-7.1c-0.5,0-0.8,0.4-0.8,0.8v7.1c0,0.5,0.4,0.8,0.8,0.8H38
	c0.5,0,0.8-0.4,0.8-0.8V41C38.9,40.6,38.5,40.2,38,40.2L38,40.2z"/>
<polygon fill="#FFCA2F" points="43.8,48.1 43.7,41 50.9,41 50.9,48.1 50.9,48.1 		"/>
<path fill="#FFFFFF" d="M50.1,41.8v5.6h-5.6v-5.6H50.1 M50.9,40.2h-7.1c-0.5,0-0.8,0.4-0.8,0.8v7.1c0,0.5,0.4,0.8,0.8,0.8h7.1
	c0.5,0,0.8-0.4,0.8-0.8V41C51.7,40.6,51.3,40.2,50.9,40.2L50.9,40.2z"/>
<polygon fill="#FFFFFF" points="56.7,48.1 56.6,41 63.7,41 63.8,48.1 63.7,48.1 		"/>
<path fill="#FFFFFF" d="M63,41.8v5.6h-5.6v-5.6H63 M63.7,40.2h-7.1c-0.5,0-0.8,0.4-0.8,0.8v7.1c0,0.5,0.4,0.8,0.8,0.8h7.1
	c0.5,0,0.8-0.4,0.8-0.8V41C64.6,40.6,64.2,40.2,63.7,40.2L63.7,40.2z"/>
<polygon fill="#FFCA2F" points="69.5,60.2 69.5,53.1 76.6,53.1 76.6,60.2 76.6,60.2 		"/>
<path fill="#FFFFFF" d="M75.9,53.9v5.6h-5.6v-5.6H75.9 M76.6,52.3h-7.1c-0.5,0-0.8,0.4-0.8,0.8v7.1c0,0.5,0.4,0.8,0.8,0.8h7.1
	c0.5,0,0.8-0.4,0.8-0.8v-7.1C77.4,52.7,77.1,52.3,76.6,52.3L76.6,52.3z"/>
<polygon fill="#FFCA2F" points="30.9,60.2 30.9,53.1 38,53.1 38.1,60.2 38,60.2 		"/>
<path fill="#FFFFFF" d="M37.3,53.9v5.6h-5.6v-5.6H37.3 M38,52.3h-7.1c-0.5,0-0.8,0.4-0.8,0.8v7.1c0,0.5,0.4,0.8,0.8,0.8H38
	c0.5,0,0.8-0.4,0.8-0.8v-7.1C38.9,52.7,38.5,52.3,38,52.3L38,52.3z"/>
<polygon fill="#FFCA2F" points="43.8,60.2 43.7,53.1 50.9,53.1 50.9,60.2 50.9,60.2 		"/>
<path fill="#FFFFFF" d="M50.1,53.9v5.6h-5.6v-5.6H50.1 M50.9,52.3h-7.1c-0.5,0-0.8,0.4-0.8,0.8v7.1c0,0.5,0.4,0.8,0.8,0.8h7.1
	c0.5,0,0.8-0.4,0.8-0.8v-7.1C51.7,52.7,51.3,52.3,50.9,52.3L50.9,52.3z"/>
<polygon fill="#FFFFFF" points="56.7,60.2 56.6,53.1 63.7,53.1 63.8,60.2 63.7,60.2 		"/>
<path fill="#FFFFFF" d="M63,53.9v5.6h-5.6v-5.6H63 M63.7,52.3h-7.1c-0.5,0-0.8,0.4-0.8,0.8v7.1c0,0.5,0.4,0.8,0.8,0.8h7.1
	c0.5,0,0.8-0.4,0.8-0.8v-7.1C64.6,52.7,64.2,52.3,63.7,52.3L63.7,52.3z"/>
<polygon fill="#FFCA2F" points="69.5,72.3 69.5,65.2 76.6,65.2 76.6,72.3 76.6,72.3 		"/>
<path fill="#FFFFFF" d="M75.9,66v5.6h-5.6V66H75.9 M76.6,64.4h-7.1c-0.5,0-0.8,0.4-0.8,0.8v7.1c0,0.5,0.4,0.8,0.8,0.8h7.1
	c0.5,0,0.8-0.4,0.8-0.8v-7.1C77.4,64.8,77.1,64.4,76.6,64.4L76.6,64.4z"/>
<polygon fill="#FFCA2F" points="30.9,72.3 30.9,65.2 38,65.2 38.1,72.3 38,72.3 		"/>
<path fill="#FFFFFF" d="M37.3,66v5.6h-5.6V66H37.3 M38,64.4h-7.1c-0.5,0-0.8,0.4-0.8,0.8v7.1c0,0.5,0.4,0.8,0.8,0.8H38
	c0.5,0,0.8-0.4,0.8-0.8v-7.1C38.9,64.8,38.5,64.4,38,64.4L38,64.4z"/>
<polygon fill="#FFCA2F" points="43.8,72.3 43.7,65.2 50.9,65.2 50.9,72.3 50.9,72.3 		"/>
<path fill="#FFFFFF" d="M50.1,66v5.6h-5.6V66H50.1 M50.9,64.4h-7.1c-0.5,0-0.8,0.4-0.8,0.8v7.1c0,0.5,0.4,0.8,0.8,0.8h7.1
	c0.5,0,0.8-0.4,0.8-0.8v-7.1C51.7,64.8,51.3,64.4,50.9,64.4L50.9,64.4z"/>
<polygon fill="#FFFFFF" points="56.7,72.3 56.6,65.2 63.7,65.2 63.8,72.3 63.7,72.3 		"/>
<path fill="#FFFFFF" d="M63,66v5.6h-5.6V66H63 M63.7,64.4h-7.1c-0.5,0-0.8,0.4-0.8,0.8v7.1c0,0.5,0.4,0.8,0.8,0.8h7.1
	c0.5,0,0.8-0.4,0.8-0.8v-7.1C64.6,64.8,64.2,64.4,63.7,64.4L63.7,64.4z"/>
</svg>
