<?xml version="1.0" encoding="utf-8"?>
<!-- Generator: Adobe Illustrator 19.2.0, SVG Export Plug-In . SVG Version: 6.00 Build 0)  -->
<svg version="1.1" id="Layer_1" xmlns="http://www.w3.org/2000/svg" xmlns:xlink="http://www.w3.org/1999/xlink" x="0px" y="0px"
	 viewBox="0 0 630 515" enable-background="new 0 0 613.5 520.5" xml:space="preserve">
	<g fill="none" stroke="#938884" stroke-width="1.25" stroke-linecap="round" stroke-miterlimit="10">
		<line x1="71.3" y1="176.3" x2="71.3" y2="176.3"/>
		<line stroke-dasharray="0,2.616" x1="73.9" y1="176.3" x2="603.6" y2="176.3"/>
		<line x1="604.9" y1="176.3" x2="604.9" y2="176.3"/>
		<line x1="71.3" y1="217.5" x2="71.3" y2="217.5"/>
		<line stroke-dasharray="0,2.616" x1="73.9" y1="217.5" x2="603.6" y2="217.5"/>
		<line x1="604.9" y1="217.5" x2="604.9" y2="217.5"/>
		<line x1="71.3" y1="300" x2="71.3" y2="300"/>
		<line stroke-dasharray="0,2.616" x1="73.9" y1="300" x2="603.6" y2="300"/>
		<line x1="604.9" y1="300" x2="604.9" y2="300"/>
		<line x1="71.3" y1="341.2" x2="71.3" y2="341.2"/>
		<line stroke-dasharray="0,2.616" x1="73.9" y1="341.2" x2="603.6" y2="341.2"/>
		<line x1="604.9" y1="341.2" x2="604.9" y2="341.2"/>
		<line x1="71.3" y1="423.6" x2="71.3" y2="423.6"/>
		<line stroke-dasharray="0,2.616" x1="73.9" y1="423.6" x2="603.6" y2="423.6"/>
		<line x1="604.9" y1="423.6" x2="604.9" y2="423.6"/>
		<line x1="71.3" y1="258.8" x2="71.3" y2="258.8"/>
		<line stroke-dasharray="0,2.616" x1="73.9" y1="258.8" x2="603.6" y2="258.8"/>
		<line x1="604.9" y1="258.8" x2="604.9" y2="258.8"/>
		<line x1="71.3" y1="382.4" x2="71.3" y2="382.4"/>
		<line stroke-dasharray="0,2.616" x1="73.9" y1="382.4" x2="603.6" y2="382.4"/>
		<line x1="604.9" y1="382.4" x2="604.9" y2="382.4"/>
		<line x1="71.3" y1="506" x2="71.3" y2="506"/>
		<line stroke-dasharray="0,2.616" x1="73.9" y1="506" x2="603.6" y2="506"/>
		<line x1="604.9" y1="506" x2="604.9" y2="506"/>
		<line x1="71.3" y1="464.8" x2="71.3" y2="464.8"/>
		<line stroke-dasharray="0,2.616" x1="73.9" y1="464.8" x2="603.6" y2="464.8"/>
		<line x1="604.9" y1="464.8" x2="604.9" y2="464.8"/>
	</g>

	<path fill="#50C8E8" d="M458.4,439.6c0,1.5,1.1,3,2.5,3.5c0,0,12.6,4,34.1,4c21.5,0,34.1-4,34.1-4c1.4-0.4,2.5-2,2.5-3.5V134.3
		h-73.3V439.6z"/>
	<path fill="#FFCE34" d="M356.4,396.1c0,1.5,1.1,3,2.5,3.5c0,0,12.6,4,34.1,4c21.5,0,34.1-4,34.1-4c1.4-0.4,2.5-2,2.5-3.5V134.3
		h-73.3V396.1z"/>
	<path fill="#938884" d="M254.5,331.6c0,1.5,1.1,3,2.5,3.5c0,0,12.6,4,34.1,4c21.5,0,34.1-4,34.1-4c1.4-0.4,2.5-2,2.5-3.5V134.3
		h-73.3V331.6z"/>
	<path fill="#C9C3C2" d="M152.6,223.1c0,1.5,1.1,3,2.5,3.5c0,0,12.6,4,34.1,4c21.5,0,34.1-4,34.1-4c1.4-0.4,2.5-2,2.5-3.5v-88.8
		h-73.3V223.1z"/>

	<g fill="#473C42" font-family="'AvenirNextLTPro-LightCn'" font-size="16px">
		<text transform="matrix(1 0 0 1 43.6496 139.1474)" >0.0</text>
		<text transform="matrix(1 0 0 1 40.2014 221.7046)">-0.4</text>
		<text transform="matrix(1 0 0 1 40.2014 304.2597)">-0.8</text>
		<text transform="matrix(1 0 0 1 40.2014 386.8154)">-1.2</text>
		<text transform="matrix(1 0 0 1 40.2014 469.372)">-1.6</text>
		<text transform="matrix(1 0 0 1 40.2014 510.6494)">-1.8</text>
		<text transform="matrix(1 0 0 1 40.2014 180.4258)">-0.2</text>
		<text transform="matrix(1 0 0 1 40.2014 262.9819)">-0.6</text>
		<text transform="matrix(1 0 0 1 40.2014 345.5381)">-1.0</text>
		<text transform="matrix(1 0 0 1 40.2014 428.0932)">-1.4</text>
	</g>
	<g fill="#473C42" font-family="'AvenirNextLTPro-LightCn'" font-size="24px">
	<text transform="matrix(0 -1 1 0 20.2027 470)">Mean A1C change from baseline (%)</text>
	<text transform="matrix(1 0 0 1 220 59.1103)">Add-on to metformin and Actos®</text>
	<text transform="matrix(1 0 0 1 300 85)">(26 weeks)</text>
	<text transform="matrix(1 0 0 1 259 112)">Compared to Byetta®</text>
	<text transform="matrix(0.583 0 0 0.583 432 105)">1,6</text>
	</g>

	<text transform="matrix(1 0 0 1 456.719 497.8525)" fill="#50C8E8" font-family="'AvenirNextLTPro-Regular'" font-size="32px">-1.51</text>
	<line fill="none" stroke="#473C42" stroke-width="1.2544" stroke-linejoin="round" x1="496.4" y1="433" x2="496.4" y2="461.1"/>
	<rect x="493.7" y="432.6" fill="#473C42" width="5.3" height="0.8"/>
	<rect x="493.7" y="460.7" fill="#473C42" width="5.3" height="0.8"/>

	<text transform="matrix(1 0 0 1 354.5959 454.4033)" fill="#FFCE34" font-family="'AvenirNextLTPro-Regular'" font-size="32px">-1.30</text>
	<line fill="none" stroke="#473C42" stroke-width="1.2544" stroke-linejoin="round" x1="394.6" y1="389.5" x2="394.6" y2="417.6"/>
	<rect x="392" y="389.1" fill="#473C42" width="5.3" height="0.8"/>
	<rect x="392" y="417.2" fill="#473C42" width="5.3" height="0.8"/>

	<text transform="matrix(1 0 0 1 251.1902 389.4111)" fill="#938884" font-family="'AvenirNextLTPro-Regular'" font-size="32px">-0.99</text>
	<line fill="none" stroke="#473C42" stroke-width="1.2544" stroke-linejoin="round" x1="291.8" y1="325" x2="291.8" y2="353.1"/>
	<rect x="289.1" y="324.6" fill="#473C42" width="5.3" height="0.8"/>
	<rect x="289.1" y="352.7" fill="#473C42" width="5.3" height="0.8"/>

	<text transform="matrix(1 0 0 1 149.4311 281.6103)" fill="#C9C3C2" font-family="'AvenirNextLTPro-Regular'" font-size="32px">-0.46</text>
	<line fill="none" stroke="#473C42" stroke-width="1.2544" stroke-linejoin="round" x1="190" y1="214.4" x2="190" y2="246.7"/>
	<rect x="187.4" y="214" fill="#473C42" width="5.3" height="0.8"/>
	<rect x="187.4" y="246.3" fill="#473C42" width="5.3" height="0.8"/>

	<polyline fill="none" stroke="#938884" stroke-width="1.25" stroke-miterlimit="10" points="71.3,506 71.3,134.3 604.9,134.3 	"/>
	<text transform="matrix(1 0 0 1 190 16.8306)" fill="#493940" font-family="'AvenirNextLTPro-Demi'" font-size="24px">A1C reduction from baseline</text>
</svg>
