<?xml version="1.0" encoding="utf-8"?>
<!-- Generator: Adobe Illustrator 19.2.0, SVG Export Plug-In . SVG Version: 6.00 Build 0)  -->
<svg version="1.1" id="Layer_1" xmlns="http://www.w3.org/2000/svg" xmlns:xlink="http://www.w3.org/1999/xlink" x="0px" y="0px"
	 viewBox="0 0 834 350" enable-background="new 0 0 834 670.5" xml:space="preserve">
	<g fill="none" stroke="#938884" stroke-width="0.7" stroke-linecap="round">
		<line x1="51.7" y1="129.8" x2="51.7" y2="129.8"/>
		<line stroke-dasharray="0,2.2005" x1="53.9" y1="129.8" x2="818.6" y2="129.8"/>
		<line x1="819.7" y1="129.8" x2="819.7" y2="129.8"/>
		<line x1="51.7" y1="154.5" x2="51.7" y2="154.5"/>
		<line stroke-dasharray="0,2.2005" x1="53.9" y1="154.5" x2="818.6" y2="154.5"/>
		<line x1="819.7" y1="154.5" x2="819.7" y2="154.5"/>
		<line x1="51.7" y1="203.8" x2="51.7" y2="203.8"/>
		<line stroke-dasharray="0,2.2005" x1="53.9" y1="203.8" x2="818.6" y2="203.8"/>
		<line x1="819.7" y1="203.8" x2="819.7" y2="203.8"/>
		<line x1="51.7" y1="228.4" x2="51.7" y2="228.4"/>
		<line stroke-dasharray="0,2.2005" x1="53.9" y1="228.4" x2="818.6" y2="228.4"/>
		<line x1="819.7" y1="228.4" x2="819.7" y2="228.4"/>
		<line x1="51.7" y1="277.7" x2="51.7" y2="277.7"/>
		<line stroke-dasharray="0,2.2005" x1="53.9" y1="277.7" x2="818.6" y2="277.7"/>
		<line x1="819.7" y1="277.7" x2="819.7" y2="277.7"/>
		<line x1="51.7" y1="179.1" x2="51.7" y2="179.1"/>
		<line stroke-dasharray="0,2.2005" x1="53.9" y1="179.1" x2="818.6" y2="179.1"/>
		<line x1="819.7" y1="179.1" x2="819.7" y2="179.1"/>
		<line x1="51.7" y1="253" x2="51.7" y2="253"/>
		<line stroke-dasharray="0,2.2005" x1="53.9" y1="253" x2="818.6" y2="253"/>
		<line x1="819.7" y1="253" x2="819.7" y2="253"/>
		<line x1="51.7" y1="327" x2="51.7" y2="327"/>
		<line stroke-dasharray="0,2.2005" x1="53.9" y1="327" x2="818.6" y2="327"/>
		<line x1="819.7" y1="327" x2="819.7" y2="327"/>
		<line x1="51.7" y1="302.3" x2="51.7" y2="302.3"/>
		<line stroke-dasharray="0,2.2005" x1="53.9" y1="302.3" x2="818.6" y2="302.3"/>
		<line x1="819.7" y1="302.3" x2="819.7" y2="302.3"/>
	</g>
	<g fill="#473C42" font-family="'AvenirNextLTPro-LightCn'" font-size="10.488px">
		<text transform="matrix(1 0 0 1 32.2 107.6001)">0.0</text>
		<text transform="matrix(1 0 0 1 30 132.5688)">-0.2</text>
		<text transform="matrix(1 0 0 1 30 158.3188)">-0.4</text>
		<text transform="matrix(1 0 0 1 30 182.2964)">-0.6</text>
		<text transform="matrix(1 0 0 1 30 207.0552)">-0.8</text>
		<text transform="matrix(1 0 0 1 30 255.7905)">-1.2</text>
		<text transform="matrix(1 0 0 1 30 280.7592)">-1.4</text>
		<text transform="matrix(1 0 0 1 30 305.519)" >-1.6</text>
		<text transform="matrix(1 0 0 1 30 330.2798)">-1.8</text>
		<text transform="matrix(1 0 0 1 30 231.0317)">-1.0</text>
	</g>
	<text transform="matrix(1 0 0 1 318.9297 23.8306)" fill="#473C42" font-family="'AvenirNextLTPro-Demi'" font-size="16px">A1C reduction from baseline</text>
	<rect x="51.2" y="651.1" fill="none" width="561.2" height="10"/>
	<text transform="matrix(0 -1 1 0 15.6973 300)" fill="#473C42" font-family="'AvenirNextLTPro-LightCn'" font-size="14px">Mean A1C change from baseline (%)</text>

	<g fill="#473C42" font-family="'AvenirNextLTPro-LightCn'" font-size="13px">
		<text transform="matrix(1 0 0 1 113 59.2348)">Add-on to metformin</text>
		<text transform="matrix(1 0 0 1 137 73.6352)">(26 weeks)</text>
		<text transform="matrix(1 0 0 1 112 94.0347)">Compared to Victoza®</text>
		<text transform="matrix(0.6 0 0 0.6 210 90.0386)">2</text>

		<text transform="matrix(1 0 0 1 250 59.2348)" >Add-on to metformin and Amaryl® </text>
		<text transform="matrix(1 0 0 1 298 73.6352)" >(52 weeks)</text>
		<text transform="matrix(1 0 0 1 270 94.0347)" >Compared to Lantus®</text>
		<text transform="matrix(0.6 0 0 0.6 365 90.0386)" >1,3-5</text>

		<text transform="matrix(1 0 0 1 442 59.2348)">Add-on to metformin and Actos® </text>
		<text transform="matrix(1 0 0 1 488 73.6352)">(26 weeks)</text>
		<text transform="matrix(1 0 0 1 460 94.0347)">Compared to Byetta®</text>
		<text transform="matrix(0.6 0 0 0.6 554 90.0386)">1,6</text>

		<text transform="matrix(1 0 0 1 655 59.2348)">Add-on to methformin</text>
		<text transform="matrix(1 0 0 1 682 73.6352)">(52 weeks)</text>
		<text transform="matrix(1 0 0 1 650 94.0347)">Compared to Januvia®</text>
		<text transform="matrix(0.6 0 0 0.6 751 90.0386)">1,7,8</text>
	</g>

	<path fill="#50C8E8" d="M734.2,238c0,0.5,0.4,1.1,0.9,1.3c0,0,4.7,1.5,12.7,1.5s12.7-1.5,12.7-1.5c0.5-0.2,0.9-0.7,0.9-1.3V104.7
		h-27.3V238z"/>
	<text transform="matrix(1 0 0 1 730 263.9594)" fill="#50C8E8" font-family="'AvenirNextLTPro-Regular'" font-size="16px">-1.10</text>

	<path fill="#FFCA2F" d="M691.8,209.8c0,0.5,0.4,1.1,0.9,1.3c0,0,4.7,1.5,12.7,1.5s12.7-1.5,12.7-1.5c0.5-0.2,0.9-0.7,0.9-1.3v-105
		h-27.3V209.8z"/>
	<text transform="matrix(1 0 0 1 685.4273 237.02)" fill="#FFCA2F" font-family="'AvenirNextLTPro-Regular'" font-size="16px">-0.87</text>

	<path fill="#FFFFFF" d="M649.4,151.6c0,0,8,1.3,14,1.3c6,0,13.3-1.3,13.3-1.3v-46.9h-27.3V151.6z"/>
	<path fill="#938884" d="M649.4,151.6c0,0,8,1.3,14,1.3c6,0,13.3-1.3,13.3-1.3v-46.9h-27.3V151.6z"/>
	<text transform="matrix(1 0 0 1 643 177.477)" fill="#938884" font-family="'AvenirNextLTPro-Regular'" font-size="16px">-0.39</text>

	<path fill="#50C8E8" d="M350,235.5c0,0.5,0.4,1.1,0.9,1.3c0,0,4.7,1.5,12.7,1.5c8,0,12.7-1.5,12.7-1.5c0.5-0.2,0.9-0.7,0.9-1.3
		V104.7H350V235.5z"/>
	<text transform="matrix(1 0 0 1 345 261.7612)" fill="#50C8E8" font-family="'AvenirNextLTPro-Regular'" font-size="16px">-1.08</text>

	<path fill="#FFCA2F" d="M308.1,195.9c0,0.5,0.4,1.1,0.9,1.3c0,0,4.7,1.5,12.7,1.5c8,0,12.7-1.5,12.7-1.5c0.5-0.2,0.9-0.7,0.9-1.3
		v-91.2h-27.3V195.9z"/>
	<text transform="matrix(1 0 0 1 303.4713 222.3442)" fill="#FFCA2F" font-family="'AvenirNextLTPro-Regular'" font-size="16px">-0.76</text>

	<path fill="#FFFFFF" d="M266.2,181.1c0,0,8,1.3,14,1.3c6,0,13.4-1.3,13.4-1.3v-76.4h-27.3V181.1z"/>
	<path fill="#938884" d="M266.2,181.1c0,0,8,1.3,14,1.3c6,0,13.4-1.3,13.4-1.3v-76.4h-27.3V181.1z"/>
	<text transform="matrix(1 0 0 1 260.7051 206.3081)" fill="#938884" font-family="'AvenirNextLTPro-Regular'" font-size="16px">-0.63</text>

	<path fill="#50C8E8" d="M560.2,289c0,0.5,0.4,1.1,0.9,1.3c0,0,4.7,1.5,12.7,1.5c8,0,12.7-1.5,12.7-1.5c0.5-0.2,0.9-0.7,0.9-1.3
		V104.7h-27.3V289z"/>
	<text transform="matrix(1 0 0 1 555 317.726)" fill="#50C8E8" font-family="'AvenirNextLTPro-Regular'" font-size="16px">-1.51</text>

	<path fill="#FFCA2F" d="M518.4,262.7c0,0.5,0.4,1.1,0.9,1.3c0,0,4.7,1.5,12.7,1.5c8,0,12.7-1.5,12.7-1.5c0.5-0.2,0.9-0.7,0.9-1.3
		v-158h-27.3V262.7z"/>
	<text transform="matrix(1 0 0 1 512 291.2798)" fill="#FFCA2F" font-family="'AvenirNextLTPro-Regular'" font-size="16px">-1.30</text>

	<path fill="#FFFFFF" d="M476.7,225.8c0,0,7.7,1.3,13.7,1.3c6,0,13.7-1.3,13.7-1.3V104.7h-27.3V225.8z"/>
	<path fill="#938884" d="M476.7,225.8c0,0,7.7,1.3,13.7,1.3c6,0,13.7-1.3,13.7-1.3V104.7h-27.3V225.8z"/>
	<text transform="matrix(1 0 0 1 471.9483 252.102)" fill="#938884" font-family="'AvenirNextLTPro-Regular'" font-size="16px">-0.99</text>

	<path fill="#FFFFFF" d="M435.1,160.7c0,0,7.7,1.3,13.7,1.3c6,0,13.7-1.3,13.7-1.3v-56h-27.3V160.7z"/>
	<path fill="#C9C3C2" d="M435.1,160.7c0,0,7.7,1.3,13.7,1.3c6,0,13.7-1.3,13.7-1.3v-56h-27.3V160.7z"/>
	<text transform="matrix(1 0 0 1 430.0606 187.2925)" fill="#C9C3C2" font-family="'AvenirNextLTPro-Regular'" font-size="16px">-0.46</text>

	<path fill="#50C8E8" d="M165.4,277.5c0,0.5,0.4,1.1,0.9,1.3c0,0,4.7,1.5,12.7,1.5c8,0,12.7-1.5,12.7-1.5c0.5-0.2,0.9-0.7,0.9-1.3 V104.7h-27.3V277.5z"/>
	<text transform="matrix(1 0 0 1 160 302.6352)" fill="#50C8E8" font-family="'AvenirNextLTPro-Regular'" font-size="16px">-1.42</text>

	<text transform="matrix(1 0 0 1 116 295.1372)" fill="#938884" font-family="'AvenirNextLTPro-Regular'" font-size="16px">-1.36</text>

	<path fill="#938884" d="M122.9,271.7c0,0,7.8,1.3,13.8,1.3c6,0,13.5-1.3,13.5-1.3v-167h-27.3V271.7z"/>

	<g stroke="#473C42" stroke-width="0.75" stroke-linejoin="round">
		<line fill="none" x1="748.9" y1="233.5" x2="748.9" y2="248"/>
		<line fill="none" x1="705.5" y1="204.1" x2="705.5" y2="221.3"/>
		<line fill="none" x1="663.4" y1="144.5" x2="663.4" y2="161.7"/>
		<line fill="none" x1="363.8" y1="231.4" x2="363.8" y2="245.7"/>
		<line fill="none" x1="322.1" y1="191.8" x2="322.1" y2="206.1"/>
		<line fill="none" x1="280.2" y1="176.2" x2="280.2" y2="190.5"/>
		<line fill="none" x1="573.8" y1="283.9" x2="573.8" y2="300.8"/>
		<line fill="none" x1="532.1" y1="257.5" x2="532.1" y2="274.3"/>
		<line fill="none" x1="490.4" y1="219.3" x2="490.4" y2="236.1"/>
		<line fill="none" x1="448.8" y1="152.4" x2="448.8" y2="171.7"/>
		<line fill="none" x1="179.2" y1="275" x2="179.2" y2="286.8"/>
		<line fill="none" x1="136.6" y1="267" x2="136.6" y2="278.9"/>
	</g>

	<g fill="#473C42">
		<rect x="747.3" y="233.2" width="3.2" height="0.5"/>
		<rect x="747.3" y="247.8" width="3.2" height="0.5"/>
		<rect x="703.9" y="203.9" width="3.2" height="0.5"/>
		<rect x="703.9" y="221.1" width="3.2" height="0.5"/>
		<rect x="661.8" y="144.3" width="3.2" height="0.5"/>
		<rect x="661.8" y="161.4" width="3.2" height="0.5"/>
		<rect x="362.2" y="231.2" width="3.2" height="0.5"/>
		<rect x="362.2" y="245.5" width="3.2" height="0.5"/>
		<rect x="320.5" y="191.5" width="3.2" height="0.5"/>
		<rect x="320.5" y="205.8" width="3.2" height="0.5"/>
		<rect x="278.6" y="176" width="3.2" height="0.5"/>
		<rect x="278.6" y="190.3" width="3.2" height="0.5"/>
		<rect x="572.2" y="283.7" width="3.2" height="0.5"/>
		<rect x="572.2" y="300.5" width="3.2" height="0.5"/>
		<rect x="530.5" y="257.2" width="3.2" height="0.5"/>
		<rect x="530.5" y="274.1" width="3.2" height="0.5"/>
		<rect x="488.8" y="219.1" width="3.2" height="0.5"/>
		<rect x="488.8" y="235.9" width="3.2" height="0.5"/>
		<rect x="447.2" y="152.1" width="3.2" height="0.5"/>
		<rect x="447.2" y="171.4" width="3.2" height="0.5"/>
		<rect x="135.1" y="266.7" width="3.2" height="0.5"/>
		<rect x="135.1" y="278.6" width="3.2" height="0.5"/>
		<rect x="177.6" y="274.7" width="3.2" height="0.5"/>
		<rect x="177.6" y="286.6" width="3.2" height="0.5"/>
	</g>

	<rect x="51.1" y="391.6" fill="none" width="181.5" height="10.5"/>
	<polyline fill="none" stroke="#938884" stroke-width="0.7" stroke-miterlimit="10" points="819.9,104.7 51.2,104.7 51.2,327 "/>
</svg>
