<?xml version="1.0" encoding="utf-8"?>
<!-- Generator: Adobe Illustrator 19.2.0, SVG Export Plug-In . SVG Version: 6.00 Build 0)  -->
<svg version="1.1" id="Layer_1" xmlns="http://www.w3.org/2000/svg" xmlns:xlink="http://www.w3.org/1999/xlink" x="0px" y="0px"
	 viewBox="0 0 610.5 522" enable-background="new 0 0 610.5 522" xml:space="preserve">
	<g  fill="none" stroke="#938884" stroke-width="1.25" stroke-linecap="round" stroke-miterlimit="10">
		<line x1="69.8" y1="180" x2="69.8" y2="180"/>
		<line stroke-dasharray="0,2.616" x1="72.4" y1="180" x2="602.1" y2="180"/>
		<line x1="603.4" y1="180" x2="603.4" y2="180"/>
		<line x1="69.8" y1="221.2" x2="69.8" y2="221.2"/>
		<line stroke-dasharray="0,2.616" x1="72.4" y1="221.2" x2="602.1" y2="221.2"/>
		<line x1="603.4" y1="221.2" x2="603.4" y2="221.2"/>
		<line x1="69.8" y1="303.6" x2="69.8" y2="303.6"/>
		<line stroke-dasharray="0,2.616" x1="72.4" y1="303.6" x2="602.1" y2="303.6"/>
		<line x1="603.4" y1="303.6" x2="603.4" y2="303.6"/>
		<line x1="69.8" y1="344.8" x2="69.8" y2="344.8"/>
		<line stroke-dasharray="0,2.616" x1="72.4" y1="344.8" x2="602.1" y2="344.8"/>
		<line x1="603.4" y1="344.8" x2="603.4" y2="344.8"/>
		<line x1="69.8" y1="427.2" x2="69.8" y2="427.2"/>
		<line stroke-dasharray="0,2.616" x1="72.4" y1="427.2" x2="602.1" y2="427.2"/>
		<line x1="603.4" y1="427.2" x2="603.4" y2="427.2"/>
		<line x1="69.8" y1="262.4" x2="69.8" y2="262.4"/>
		<line stroke-dasharray="0,2.616" x1="72.4" y1="262.4" x2="602.1" y2="262.4"/>
		<line x1="603.4" y1="262.4" x2="603.4" y2="262.4"/>
		<line x1="69.8" y1="386" x2="69.8" y2="386"/>
		<line stroke-dasharray="0,2.616" x1="72.4" y1="386" x2="602.1" y2="386"/>
		<line x1="603.4" y1="386" x2="603.4" y2="386"/>
		<line x1="69.8" y1="509.7" x2="69.8" y2="509.7"/>
		<line stroke-dasharray="0,2.616" x1="72.4" y1="509.7" x2="602.1" y2="509.7"/>
		<line x1="603.4" y1="509.7" x2="603.4" y2="509.7"/>
		<line x1="69.8" y1="468.4" x2="69.8" y2="468.4"/>
		<line stroke-dasharray="0,2.616" x1="72.4" y1="468.4" x2="602.1" y2="468.4"/>
		<line x1="603.4" y1="468.4" x2="603.4" y2="468.4"/>
	</g>
	<path fill="#50C8E8" d="M405.9,354.5c0,1.5,1.1,3,2.5,3.5c0,0,12.6,4,34.1,4c21.5,0,34.1-4,34.1-4c1.4-0.4,2.5-2,2.5-3.5V138
		h-73.3V354.5z"/>
	<path fill="#FFCE34" d="M304,287.6c0,1.5,1.1,3,2.5,3.5c0,0,12.6,4,34.1,4c21.5,0,34.1-4,34.1-4c1.4-0.4,2.5-2,2.5-3.5V138H304
		V287.6z"/>
	<path fill="#938884" d="M202,260.5c0,1.5,1.1,3,2.5,3.5c0,0,12.6,4,34.1,4c21.5,0,34.1-4,34.1-4c1.4-0.4,2.5-2,2.5-3.5V138H202
		V260.5z"/>

	<g fill="#473C42" font-family="'AvenirNextLTPro-Light'" font-size="14px">
		<text transform="matrix(1 0 0 1 38.7366 142.7622)" >0.0</text>
		<text transform="matrix(1 0 0 1 34.4388 225.3193)">-0.4</text>
		<text transform="matrix(1 0 0 1 34.4388 307.8745)">-0.8</text>
		<text transform="matrix(1 0 0 1 34.4388 390.4301)">-1.2</text>
		<text transform="matrix(1 0 0 1 34.4388 472.9868)">-1.6</text>
		<text transform="matrix(1 0 0 1 34.4388 514.2641)">-1.8</text>
		<text transform="matrix(1 0 0 1 34.4388 184.0405)">-0.2</text>
		<text transform="matrix(1 0 0 1 34.4388 266.5966)">-0.6</text>
		<text transform="matrix(1 0 0 1 34.4388 349.1528)">-1.0</text>
		<text transform="matrix(1 0 0 1 34.4388 431.708)">-1.4</text>
	</g>

	<g fill="#473C42" font-family="'AvenirNextLTPro-LightCn'" font-size="22px">
		<text transform="matrix(0 -1 1 0 18.7028 459.1831)">Mean A1C change from baseline (%)</text>
		<text transform="matrix(1 0 0 1 215 60)">Add-on to metformin and Amaryl®</text>
		<text transform="matrix(1 0 0 1 300.9446 85)">(52 weeks)</text>
		<text transform="matrix(1 0 0 1 260 110)">Compared to Lantus®</text>
		<text transform="matrix(0.583 0 0 0.583 422 103)">1,3-5</text>
	</g>

	<text transform="matrix(1 0 0 1 405.221 411.5424)" fill="#50C8E8" font-family="'AvenirNextLTPro-Regular'" font-size="36px">-1.08</text>
	<line fill="none" stroke="#473C42" stroke-width="1.2544" stroke-linejoin="round" x1="442.9" y1="349.8" x2="442.9" y2="373.7"/>
	<rect x="440.3" y="349.3" fill="#473C42" width="5.3" height="0.8"/>
	<rect x="440.3" y="373.3" fill="#473C42" width="5.3" height="0.8"/>

	<text transform="matrix(1 0 0 1 300.6526 345.269)" fill="#FFCE34" font-family="'AvenirNextLTPro-Regular'" font-size="36px">-0.76</text>
	<line fill="none" stroke="#473C42" stroke-width="1.2544" stroke-linejoin="round" x1="342.1" y1="283.1" x2="342.1" y2="307"/>
	<rect x="339.4" y="282.7" fill="#473C42" width="5.3" height="0.8"/>
	<rect x="339.4" y="306.6" fill="#473C42" width="5.3" height="0.8"/>

	<text transform="matrix(1 0 0 1 194.9163 317.7837)" fill="#938884" font-family="'AvenirNextLTPro-Regular'" font-size="36px">-0.63</text>
	<line fill="none" stroke="#473C42" stroke-width="1.2544" stroke-linejoin="round" x1="237.2" y1="256.4" x2="237.2" y2="280.4"/>
	<rect x="234.5" y="256" fill="#473C42" width="5.3" height="0.8"/>
	<rect x="234.5" y="280" fill="#473C42" width="5.3" height="0.8"/>

	<polyline fill="none" stroke="#938884" stroke-width="1.25" stroke-miterlimit="10" points="69.8,509.7 69.8,137.9 603.4,137.9 "/>
	<text transform="matrix(1 0 0 1 190 16.8306)" fill="#493940" font-family="'AvenirNextLTPro-Demi'" font-size="24px">A1C reduction from baseline</text>
</svg>
