<?xml version="1.0" encoding="utf-8"?>
<!-- Generator: Adobe Illustrator 19.2.0, SVG Export Plug-In . SVG Version: 6.00 Build 0)  -->
<svg version="1.1" id="Layer_1" xmlns="http://www.w3.org/2000/svg" xmlns:xlink="http://www.w3.org/1999/xlink" x="0px" y="0px"
	 viewBox="0 0 607 518" enable-background="new 0 0 607 518" xml:space="preserve">

	<g fill="none" stroke="#938884" stroke-width="1.25" stroke-linecap="round" stroke-miterlimit="10">
		<line x1="69.7" y1="176.4" x2="69.7" y2="176.4"/>
		<line stroke-dasharray="0,2.616" x1="72.3" y1="176.4" x2="602" y2="176.4"/>
		<line x1="603.3" y1="176.4" x2="603.3" y2="176.4"/>
		<line x1="69.7" y1="217.6" x2="69.7" y2="217.6"/>
		<line stroke-dasharray="0,2.616" x1="72.3" y1="217.6" x2="602" y2="217.6"/>
		<line x1="603.3" y1="217.6" x2="603.3" y2="217.6"/>
		<line x1="69.7" y1="300.1" x2="69.7" y2="300.1"/>
		<line stroke-dasharray="0,2.616" x1="72.3" y1="300.1" x2="602" y2="300.1"/>
		<line x1="603.3" y1="300.1" x2="603.3" y2="300.1"/>
		<line x1="69.7" y1="341.3" x2="69.7" y2="341.3"/>
		<line stroke-dasharray="0,2.616" x1="72.3" y1="341.3" x2="602" y2="341.3"/>
		<line x1="603.3" y1="341.3" x2="603.3" y2="341.3"/>
		<line x1="69.7" y1="423.7" x2="69.7" y2="423.7"/>
		<line stroke-dasharray="0,2.616" x1="72.3" y1="423.7" x2="602" y2="423.7"/>
		<line x1="603.3" y1="423.7" x2="603.3" y2="423.7"/>
		<line x1="69.7" y1="258.8" x2="69.7" y2="258.8"/>
		<line stroke-dasharray="0,2.616" x1="72.3" y1="258.8" x2="602" y2="258.8"/>
		<line x1="603.3" y1="258.8" x2="603.3" y2="258.8"/>
		<line x1="69.7" y1="382.5" x2="69.7" y2="382.5"/>
		<line stroke-dasharray="0,2.616" x1="72.3" y1="382.5" x2="602" y2="382.5"/>
		<line x1="603.3" y1="382.5" x2="603.3" y2="382.5"/>
		<line x1="69.7" y1="506.1" x2="69.7" y2="506.1"/>
		<line stroke-dasharray="0,2.616" x1="72.3" y1="506.1" x2="602" y2="506.1"/>
		<line x1="603.3" y1="506.1" x2="603.3" y2="506.1"/>
		<line x1="69.7" y1="464.9" x2="69.7" y2="464.9"/>
		<line stroke-dasharray="0,2.616" x1="72.3" y1="464.9" x2="602" y2="464.9"/>
		<line x1="603.3" y1="464.9" x2="603.3" y2="464.9"/>
	</g>

	<path fill="#FFCA2F" d="M305.3,317.6c0,1.5,1.1,3,2.5,3.5c0,0,12.6,4,34.1,4c21.5,0,34.1-4,34.1-4c1.4-0.4,2.5-2,2.5-3.5V134.4
		h-73.3V317.6z"/>
	<path fill="#938884" d="M151.2,210.6c0,1.5,1.1,3,2.5,3.5c0,0,12.6,4,34.1,4c21.5,0,34.1-4,34.1-4c1.4-0.4,2.5-2,2.5-3.5v-76.2
		h-73.3V210.6z"/>
	<g fill="#473C42" font-family="'AvenirNextLTPro-LightCn'" font-size="14px">
		<text transform="matrix(1 0 0 1 42.0576 139.2256)">0.0</text>
		<text transform="matrix(1 0 0 1 38.6094 221.7827)">-0.4</text>
		<text transform="matrix(1 0 0 1 38.6094 304.3379)">-0.8</text>
		<text transform="matrix(1 0 0 1 38.6094 386.8936)">-1.2</text>
		<text transform="matrix(1 0 0 1 38.6094 469.4502)">-1.6</text>
		<text transform="matrix(1 0 0 1 38.6094 510.7275)">-1.8</text>
		<text transform="matrix(1 0 0 1 38.6094 180.5039)">-0.2</text>
		<text transform="matrix(1 0 0 1 38.6094 263.0601)">-0.6</text>
		<text transform="matrix(1 0 0 1 38.6094 345.6162)">-1.0</text>
		<text transform="matrix(1 0 0 1 38.6094 428.1714)">-1.4</text>
	</g>

	<text transform="matrix(1 0 0 1 305.3242 373.894)"><tspan x="0" y="0" fill="#FFCA2F" font-family="'AvenirNextLTPro-Regular'" font-size="36px">-</tspan><tspan x="11.1" y="0" fill="#FFCA2F" font-family="'AvenirNextLTPro-Regular'" font-size="36px" letter-spacing="-1">0</tspan><tspan x="27.6" y="0" fill="#FFCA2F" font-family="'AvenirNextLTPro-Regular'" font-size="36px" letter-spacing="-1">.</tspan><tspan x="33.7" y="0" fill="#FFCA2F" font-family="'AvenirNextLTPro-Regular'" font-size="36px">87</tspan></text>
	<line fill="none" stroke="#473C42" stroke-width="1.2544" stroke-linejoin="round" x1="343.3" y1="311" x2="343.3" y2="339.1"/>
	<rect x="340.7" y="310.6" fill="#473C42" width="5.3" height="0.8"/>
	<rect x="340.7" y="338.7" fill="#473C42" width="5.3" height="0.8"/>

	<path fill="#50C8E8" d="M450,356c0,1.5,1.1,3,2.5,3.5c0,0,12.6,4,34.1,4c21.5,0,34.1-4,34.1-4c1.4-0.4,2.5-2,2.5-3.5V134.4H450V356z"/>
	<text transform="matrix(1 0 0 1 453.0329 412.3354)"><tspan x="0" y="0" fill="#50C8E8" font-family="'AvenirNextLTPro-Regular'" font-size="36px">-</tspan><tspan x="11.1" y="0" fill="#50C8E8" font-family="'AvenirNextLTPro-Regular'" font-size="36px" letter-spacing="-6">1</tspan><tspan x="23.4" y="0" fill="#50C8E8" font-family="'AvenirNextLTPro-Regular'" font-size="36px" letter-spacing="-1">.1</tspan><tspan x="46.1" y="0" fill="#50C8E8" font-family="'AvenirNextLTPro-Regular'" font-size="36px">0</tspan></text>
	<line fill="none" stroke="#473C42" stroke-width="1.2544" stroke-linejoin="round" x1="488" y1="347.4" x2="488" y2="375.6"/>
		<rect x="485.3" y="347" fill="#473C42" width="5.3" height="0.8"/>
		<rect x="485.3" y="375.2" fill="#473C42" width="5.3" height="0.8"/>

	<text transform="matrix(1 0 0 1 149.1024 268.1347)"><tspan x="0" y="0" fill="#938884" font-family="'AvenirNextLTPro-Regular'" font-size="36px">-</tspan><tspan x="11.1" y="0" fill="#938884" font-family="'AvenirNextLTPro-Regular'" font-size="36px" letter-spacing="-1">0</tspan><tspan x="27.9" y="0" fill="#938884" font-family="'AvenirNextLTPro-Regular'" font-size="36px">.</tspan><tspan x="34.9" y="0" fill="#938884" font-family="'AvenirNextLTPro-Regular'" font-size="36px">39</tspan></text>
				<line fill="none" stroke="#473C42" stroke-width="1.2544" stroke-linejoin="round" x1="188.7" y1="201.9" x2="188.7" y2="234.2"/>
				<rect x="186" y="201.5" fill="#473C42" width="5.3" height="0.8"/>
				<rect x="186" y="233.8" fill="#473C42" width="5.3" height="0.8"/>

	<polyline fill="none" stroke="#938884" stroke-width="1.25" stroke-miterlimit="10" points="69.7,506.1 69.7,134.4 603.3,134.4 "/>

	<g fill="#473C42" font-family="'AvenirNextLTPro-LightCn'" font-size="24px">
		<text transform="matrix(0 -1 1 0 18.6107 455.6465)" >Mean A1C change from baseline (%)</text>

		<text transform="matrix(1 0 0 1 255 56.7686)">Add-on to metformin</text>
		<text transform="matrix(1 0 0 1 300.8525 83)" >(52 weeks)</text>
		<text transform="matrix(1 0 0 1 246.7314 110)" >Compared to Januvia®</text>
		<text transform="matrix(0.583 0 0 0.583 432 103)" >1,7,8</text>
	</g>

	<text transform="matrix(1 0 0 1 185 16.8306)" fill="#493940" font-family="'AvenirNextLTPro-Demi'" font-size="24px">A1C reduction from baseline</text>
</svg>
