<?xml version="1.0" encoding="utf-8"?>
<svg version="1.1" id="Layer_1" xmlns="http://www.w3.org/2000/svg" xmlns:xlink="http://www.w3.org/1999/xlink" x="0px" y="0px"
	 viewBox="0 0 618 505" enable-background="new 0 0 618 505" xml:space="preserve">
	<g fill="none" stroke="#938884" stroke-width="1.25" stroke-linecap="round" stroke-miterlimit="10" >
		<line x1="71.7" y1="165.4" x2="71.7" y2="165.4"/>
		<line stroke-dasharray="0,2.616" x1="74.3" y1="165.4" x2="604" y2="165.4"/>
		<line x1="605.3" y1="165.4" x2="605.3" y2="165.4"/>
		<line x1="71.7" y1="206.6" x2="71.7" y2="206.6"/>
		<line stroke-dasharray="0,2.616" x1="74.3" y1="206.6" x2="604" y2="206.6"/>
		<line x1="605.3" y1="206.6" x2="605.3" y2="206.6"/>
		<line x1="71.7" y1="289.1" x2="71.7" y2="289.1"/>
		<line stroke-dasharray="0,2.616" x1="74.3" y1="289.1" x2="604" y2="289.1"/>
		<line x1="605.3" y1="289.1" x2="605.3" y2="289.1"/>
		<line x1="71.7" y1="330.3" x2="71.7" y2="330.3"/>
		<line stroke-dasharray="0,2.616" x1="74.3" y1="330.3" x2="604" y2="330.3"/>
		<line x1="605.3" y1="330.3" x2="605.3" y2="330.3"/>
		<line x1="71.7" y1="412.7" x2="71.7" y2="412.7"/>
		<line stroke-dasharray="0,2.616" x1="74.3" y1="412.7" x2="604" y2="412.7"/>
		<line x1="605.3" y1="412.7" x2="605.3" y2="412.7"/>
		<line x1="71.7" y1="247.8" x2="71.7" y2="247.8"/>
		<line stroke-dasharray="0,2.616" x1="74.3" y1="247.8" x2="604" y2="247.8"/>
		<line x1="605.3" y1="247.8" x2="605.3" y2="247.8"/>
		<line x1="71.7" y1="371.5" x2="71.7" y2="371.5"/>
		<line stroke-dasharray="0,2.616" x1="74.3" y1="371.5" x2="604" y2="371.5"/>
		<line x1="605.3" y1="371.5" x2="605.3" y2="371.5"/>
		<line x1="71.7" y1="495.1" x2="71.7" y2="495.1"/>
		<line stroke-dasharray="0,2.616" x1="74.3" y1="495.1" x2="604" y2="495.1"/>
		<line x1="605.3" y1="495.1" x2="605.3" y2="495.1"/>
		<line x1="71.7" y1="453.9" x2="71.7" y2="453.9"/>
		<line stroke-dasharray="0,2.616" x1="74.3" y1="453.9" x2="604" y2="453.9"/>
		<line x1="605.3" y1="453.9" x2="605.3" y2="453.9"/>
	</g>
	<path fill="#50C8E8" d="M395.4,414.5c0,1.5,1.1,3,2.5,3.5c0,0,12.6,4,34.1,4c21.5,0,34.1-4,34.1-4c1.4-0.4,2.5-2,2.5-3.5V123.4
		h-73.3V414.5z"/>
	<path fill="#938884" d="M219.9,395.1c0,1.5,1.1,3,2.5,3.5c0,0,12.6,4,34.1,4c21.5,0,34.1-4,34.1-4c1.4-0.4,2.5-2,2.5-3.5V123.4
		h-73.3V395.1z"/>
	<g fill="#473C42" font-family="'AvenirNextLTPro-LightCn'" font-size="14px">
		<text transform="matrix(1 0 0 1 44.0576 128.2256)">0.0</text>
		<text transform="matrix(1 0 0 1 40.6094 210.7827)">-0.4</text>
		<text transform="matrix(1 0 0 1 40.6094 293.3379)">-0.8</text>
		<text transform="matrix(1 0 0 1 40.6094 375.8936)">-1.2</text>
		<text transform="matrix(1 0 0 1 40.6094 458.4502)">-1.6</text>
		<text transform="matrix(1 0 0 1 40.6094 499.7275)">-1.8</text>
		<text transform="matrix(1 0 0 1 40.6094 169.5039)">-0.2</text>
		<text transform="matrix(1 0 0 1 40.6094 252.0601)">-0.6</text>
		<text transform="matrix(1 0 0 1 40.6094 334.6162)">-1.0</text>
		<text transform="matrix(1 0 0 1 40.6094 417.1714)">-1.4</text>
	</g>
	<text transform="matrix(1 0 0 1 393.6996 472.8354)" fill="#50C8E8" font-family="'AvenirNextLTPro-Regular'" font-size="36px">-1.42</text>
	<line fill="none" stroke="#473C42" stroke-width="1.2544" stroke-linejoin="round" x1="433.3" y1="407.9" x2="433.3" y2="436.1"/>
	<rect x="430.7" y="407.5" fill="#473C42" width="5.3" height="0.8"/>
	<rect x="430.7" y="435.7" fill="#473C42" width="5.3" height="0.8"/>
	<text transform="matrix(1 0 0 1 216.7251 454.6342)" fill="#938884" font-family="'AvenirNextLTPro-Regular'" font-size="36px">-1.36</text>
	<line fill="none" stroke="#473C42" stroke-width="1.2544" stroke-linejoin="round" x1="257.3" y1="386.4" x2="257.3" y2="418.7"/>
	<rect x="254.7" y="386" fill="#473C42" width="5.3" height="0.8"/>
	<rect x="254.7" y="418.3" fill="#473C42" width="5.3" height="0.8"/>
	<polyline fill="none" stroke="#938884" stroke-width="1.25" stroke-miterlimit="10" points="71.7,495.1 71.7,123.4 605.3,123.4 "/>

	<g  fill="#473C42" font-family="'AvenirNextLTPro-LightCn'" font-size="22px">
		<text transform="matrix(0 -1 1 0 20.6107 444.6465)">Mean A1C change from baseline (%)</text>
		<text transform="matrix(1 0 0 1 265 50)">Add-on to metformin</text>
		<text transform="matrix(1 0 0 1 305 75)">(26 weeks)</text>
		<text transform="matrix(1 0 0 1 265 100)">Compared to Victoza®</text>
		<text transform="matrix(0.583 0 0 0.583 430 95)">2</text>
	</g>

	<text transform="matrix(1 0 0 1 190 16.8306)" fill="#493940" font-family="'AvenirNextLTPro-Demi'" font-size="24px">A1C reduction from baseline</text>
</svg>
