<?xml version="1.0" encoding="utf-8"?>
<svg version="1.1" id="Layer_1" xmlns="http://www.w3.org/2000/svg" xmlns:xlink="http://www.w3.org/1999/xlink" x="0px" y="0px"
	 viewBox="0 0 640 408" enable-background="new 0 0 640 408" xml:space="preserve">
	<g fill="none" stroke="#938884" stroke-width="1.25" stroke-linecap="round" stroke-miterlimit="10">
		<line  x1="84.3" y1="88.6" x2="84.3" y2="88.6"/>
		<line  stroke-dasharray="0,2.616" x1="87" y1="88.6" x2="616.7" y2="88.6"/>
		<line  x1="618" y1="88.6" x2="618" y2="88.6"/>
		<line  x1="84.3" y1="162.8" x2="84.3" y2="162.8"/>
		<line  stroke-dasharray="0,2.616" x1="87" y1="162.8" x2="616.7" y2="162.8"/>
		<line  x1="618" y1="162.8" x2="618" y2="162.8"/>
		<line  x1="84.3" y1="236.9" x2="84.3" y2="236.9"/>
		<line  stroke-dasharray="0,2.616" x1="87" y1="236.9" x2="616.7" y2="236.9"/>
		<line  x1="618" y1="236.9" x2="618" y2="236.9"/>
		<line  x1="84.3" y1="385.1" x2="84.3" y2="385.1"/>
		<line  stroke-dasharray="0,2.616" x1="87" y1="385.1" x2="616.7" y2="385.1"/>
		<line  x1="618" y1="385.1" x2="618" y2="385.1"/>
		<line  x1="84.3" y1="311" x2="84.3" y2="311"/>
		<line  stroke-dasharray="0,2.616" x1="87" y1="311" x2="616.7" y2="311"/>
		<line  x1="618" y1="311" x2="618" y2="311"/>
	</g>
	<path fill="#50C8E8" d="M408,198.2c0,1.5,1.1,3,2.5,3.5c0,0,12.6,4,34.1,4c21.5,0,34.1-4,34.1-4c1.4-0.4,2.5-2,2.5-3.5V13.4H408
		V198.2z"/>
	<path fill="#FFCA2F" d="M232.5,147.5c0,1.5,1.1,3,2.5,3.5c0,0,12.6,4,34.1,4c21.5,0,34.1-4,34.1-4c1.4-0.4,2.5-2,2.5-3.5V13.4h-73.3
		V147.5z"/>
	<g fill="#473C42" font-family="'AvenirNextLTPro-Light'" font-size="11.2323px">
		<text transform="matrix(1 0 0 1 64.8027 18.2256)">0</text>
		<text transform="matrix(1 0 0 1 55.5918 92.526)">-10</text>
		<text transform="matrix(1 0 0 1 55.5918 166.8259)">-20</text>
		<text transform="matrix(1 0 0 1 55.5918 241.1263)">-30</text>
		<text transform="matrix(1 0 0 1 55.5918 315.4272)">-40</text>
		<text transform="matrix(1 0 0 1 55.5918 389.7275)">-50</text>
	</g>
	<text transform="matrix(0 -1 1 0 18.2689 362.7869)"><tspan x="0" y="0" fill="#473C42" font-family="'AvenirNextLTPro-Light'" font-size="15px">Placebo-adjusted LS mean change from baseline  </tspan><tspan x="51" y="19.2" fill="#473C42" font-family="'AvenirNextLTPro-Light'" font-size="15px">in fasting plasma glucose (mg/dL)</tspan></text>
	<text transform="matrix(1 0 0 1 400 256.4618)" fill="#50C8E8" font-family="'AvenirNextLTPro-Regular'" font-size="36px">-25.6</text>
	<text transform="matrix(1 0 0 1 225 206.9676)" fill="#FFCA2F" font-family="'AvenirNextLTPro-Regular'" font-size="36px">-18.8</text>
	<polyline fill="none" stroke="#938884" stroke-width="1.25" stroke-miterlimit="10" points="84.3,385.1 84.3,13.4 618,13.4 "/>
</svg>
