<?xml version="1.0" encoding="utf-8"?>
<!-- Generator: Adobe Illustrator 19.2.0, SVG Export Plug-In . SVG Version: 6.00 Build 0)  -->
<svg version="1.1" id="Layer_1" xmlns="http://www.w3.org/2000/svg" xmlns:xlink="http://www.w3.org/1999/xlink" x="0px" y="0px"
	 viewBox="0 0 626 396.7" enable-background="new 0 0 626 396.7" xml:space="preserve">
	<g fill="none" stroke="#938884" stroke-width="1.25" stroke-linecap="round" stroke-miterlimit="10">
		<line x1="84.3" y1="10.7" x2="84.3" y2="10.7"/>
		<line stroke-dasharray="0,2.616" x1="87" y1="10.7" x2="616.7" y2="10.7"/>
		<line x1="618" y1="10.7" x2="618" y2="10.7"/>
		<line x1="84.3" y1="57.2" x2="84.3" y2="57.2"/>
		<line stroke-dasharray="0,2.616" x1="87" y1="57.2" x2="616.7" y2="57.2"/>
		<line x1="618" y1="57.2" x2="618" y2="57.2"/>
		<line x1="84.3" y1="150.1" x2="84.3" y2="150.1"/>
		<line stroke-dasharray="0,2.616" x1="87" y1="150.1" x2="616.7" y2="150.1"/>
		<line x1="618" y1="150.1" x2="618" y2="150.1"/>
		<line x1="84.3" y1="196.6" x2="84.3" y2="196.6"/>
		<line stroke-dasharray="0,2.616" x1="87" y1="196.6" x2="616.7" y2="196.6"/>
		<line x1="618" y1="196.6" x2="618" y2="196.6"/>
		<line x1="84.3" y1="289.5" x2="84.3" y2="289.5"/>
		<line stroke-dasharray="0,2.616" x1="87" y1="289.5" x2="616.7" y2="289.5"/>
		<line x1="618" y1="289.5" x2="618" y2="289.5"/>
		<line x1="84.3" y1="103.6" x2="84.3" y2="103.6"/>
		<line stroke-dasharray="0,2.616" x1="87" y1="103.6" x2="616.7" y2="103.6"/>
		<line x1="618" y1="103.6" x2="618" y2="103.6"/>
		<line x1="84.3" y1="243" x2="84.3" y2="243"/>
		<line stroke-dasharray="0,2.616" x1="87" y1="243" x2="616.7" y2="243"/>
		<line x1="618" y1="243" x2="618" y2="243"/>
		<line x1="84.3" y1="382.4" x2="84.3" y2="382.4"/>
		<line stroke-dasharray="0,2.616" x1="87" y1="382.4" x2="616.7" y2="382.4"/>
		<line x1="618" y1="382.4" x2="618" y2="382.4"/>
		<line x1="84.3" y1="336" x2="84.3" y2="336"/>
		<line stroke-dasharray="0,2.616" x1="87" y1="336" x2="616.7" y2="336"/>
		<line x1="618" y1="336" x2="618" y2="336"/>
	</g>
	<path fill="#50C8E8" d="M408,279.5c0,1.5,1.1,3,2.5,3.5c0,0,12.6,4,34.1,4c21.5,0,34.1-4,34.1-4c1.4-0.4,2.5-2,2.5-3.5V10.7H408
		V279.5z"/>
	<path fill="#FFCA2F" d="M232.5,188.5c0,1.5,1.1,3,2.5,3.5c0,0,12.6,4,34.1,4c21.5,0,34.1-4,34.1-4c1.4-0.4,2.5-2,2.5-3.5V10.7h-73.3
		V188.5z"/>
	<g fill="#473C42" font-family="'AvenirNextLTPro-Light'" font-size="11.2323px">
		<text transform="matrix(1 0 0 1 64.8027 15.5589)">0</text>
		<text transform="matrix(1 0 0 1 55.5918 61.9962)">-10</text>
		<text transform="matrix(1 0 0 1 55.5918 108.4339)">-20</text>
		<text transform="matrix(1 0 0 1 55.5918 154.8721)">-30</text>
		<text transform="matrix(1 0 0 1 55.5918 201.3099)">-40</text>
		<text transform="matrix(1 0 0 1 55.5918 247.7476)">-50</text>
		<text transform="matrix(1 0 0 1 55.5918 294.1849)">-60</text>
		<text transform="matrix(1 0 0 1 55.5918 340.6231)">-70</text>
		<text transform="matrix(1 0 0 1 55.5918 387.0609)">-80</text>
	</g>
	<text transform="matrix(0 -1 1 0 20.2689 360.1202)" fill="#473C42" font-family="'AvenirNextLTPro-Light'" font-size="15px">
		<tspan x="0" y="0">Placebo-adjusted LS mean change from baseline  </tspan>
		<tspan x="31.4" y="19.2">in postprandial plasma glucose (mg/dL)</tspan>
	</text>
	<text transform="matrix(1 0 0 1 406.3578 337.7564)" fill="#50C8E8" font-family="'AvenirNextLTPro-Regular'" font-size="36px">-59.5</text>
	<text transform="matrix(1 0 0 1 229.3833 248.047)" fill="#FFCA2F" font-family="'AvenirNextLTPro-Regular'" font-size="36px">-39.8</text>
	<polyline fill="none" stroke="#938884" stroke-width="1.25" stroke-miterlimit="10" points="84.3,382.4 84.3,10.7 618,10.7 "/>
</svg>
