<?xml version="1.0" encoding="utf-8"?>
<!-- Generator: Adobe Illustrator 19.2.0, SVG Export Plug-In . SVG Version: 6.00 Build 0)  -->
<svg version="1.1" id="Layer_1" xmlns="http://www.w3.org/2000/svg" xmlns:xlink="http://www.w3.org/1999/xlink" x="0px" y="0px"
	 viewBox="0 0 257 272" enable-background="new 0 0 257 272" xml:space="preserve">
<g>

		<line fill="none" stroke="#948A82" stroke-width="0.5" stroke-linecap="round" stroke-miterlimit="10" x1="40.7" y1="145.7" x2="40.7" y2="145.7"/>

		<line fill="none" stroke="#948A82" stroke-width="0.5" stroke-linecap="round" stroke-miterlimit="10" stroke-dasharray="0,1.5051" x1="42.2" y1="145.7" x2="238.6" y2="145.7"/>

		<line fill="none" stroke="#948A82" stroke-width="0.5" stroke-linecap="round" stroke-miterlimit="10" x1="239.4" y1="145.7" x2="239.4" y2="145.7"/>

		<line fill="none" stroke="#948A82" stroke-width="0.5" stroke-linecap="round" stroke-miterlimit="10" x1="40.7" y1="64.9" x2="40.7" y2="64.9"/>

		<line fill="none" stroke="#948A82" stroke-width="0.5" stroke-linecap="round" stroke-miterlimit="10" stroke-dasharray="0,1.5051" x1="42.2" y1="64.9" x2="238.6" y2="64.9"/>

		<line fill="none" stroke="#948A82" stroke-width="0.5" stroke-linecap="round" stroke-miterlimit="10" x1="239.4" y1="64.9" x2="239.4" y2="64.9"/>

		<line fill="none" stroke="#948A82" stroke-width="0.5" stroke-linecap="round" stroke-miterlimit="10" x1="40.7" y1="105.3" x2="40.7" y2="105.3"/>

		<line fill="none" stroke="#948A82" stroke-width="0.5" stroke-linecap="round" stroke-miterlimit="10" stroke-dasharray="0,1.5051" x1="42.2" y1="105.3" x2="238.6" y2="105.3"/>

		<line fill="none" stroke="#948A82" stroke-width="0.5" stroke-linecap="round" stroke-miterlimit="10" x1="239.4" y1="105.3" x2="239.4" y2="105.3"/>

		<line fill="none" stroke="#948A82" stroke-width="0.5" stroke-linecap="round" stroke-miterlimit="10" x1="40.7" y1="186.1" x2="40.7" y2="186.1"/>

		<line fill="none" stroke="#948A82" stroke-width="0.5" stroke-linecap="round" stroke-miterlimit="10" stroke-dasharray="0,1.5051" x1="42.2" y1="186.1" x2="238.6" y2="186.1"/>

		<line fill="none" stroke="#948A82" stroke-width="0.5" stroke-linecap="round" stroke-miterlimit="10" x1="239.4" y1="186.1" x2="239.4" y2="186.1"/>

		<line fill="none" stroke="#948A82" stroke-width="0.5" stroke-linecap="round" stroke-miterlimit="10" x1="40.7" y1="125.5" x2="40.7" y2="125.5"/>

		<line fill="none" stroke="#948A82" stroke-width="0.5" stroke-linecap="round" stroke-miterlimit="10" stroke-dasharray="0,1.5051" x1="42.2" y1="125.5" x2="238.6" y2="125.5"/>

		<line fill="none" stroke="#948A82" stroke-width="0.5" stroke-linecap="round" stroke-miterlimit="10" x1="239.4" y1="125.5" x2="239.4" y2="125.5"/>

		<line fill="none" stroke="#948A82" stroke-width="0.5" stroke-linecap="round" stroke-miterlimit="10" x1="40.7" y1="44.7" x2="40.7" y2="44.7"/>

		<line fill="none" stroke="#948A82" stroke-width="0.5" stroke-linecap="round" stroke-miterlimit="10" stroke-dasharray="0,1.5051" x1="42.2" y1="44.7" x2="238.6" y2="44.7"/>

		<line fill="none" stroke="#948A82" stroke-width="0.5" stroke-linecap="round" stroke-miterlimit="10" x1="239.4" y1="44.7" x2="239.4" y2="44.7"/>

		<line fill="none" stroke="#948A82" stroke-width="0.5" stroke-linecap="round" stroke-miterlimit="10" x1="40.7" y1="24.5" x2="40.7" y2="24.5"/>

		<line fill="none" stroke="#948A82" stroke-width="0.5" stroke-linecap="round" stroke-miterlimit="10" stroke-dasharray="0,1.5051" x1="42.2" y1="24.5" x2="238.6" y2="24.5"/>

		<line fill="none" stroke="#948A82" stroke-width="0.5" stroke-linecap="round" stroke-miterlimit="10" x1="239.4" y1="24.5" x2="239.4" y2="24.5"/>

		<line fill="none" stroke="#948A82" stroke-width="0.5" stroke-linecap="round" stroke-miterlimit="10" x1="40.7" y1="85.1" x2="40.7" y2="85.1"/>

		<line fill="none" stroke="#948A82" stroke-width="0.5" stroke-linecap="round" stroke-miterlimit="10" stroke-dasharray="0,1.5051" x1="42.2" y1="85.1" x2="238.6" y2="85.1"/>

		<line fill="none" stroke="#948A82" stroke-width="0.5" stroke-linecap="round" stroke-miterlimit="10" x1="239.4" y1="85.1" x2="239.4" y2="85.1"/>

		<line fill="none" stroke="#948A82" stroke-width="0.5" stroke-linecap="round" stroke-miterlimit="10" x1="40.7" y1="165.9" x2="40.7" y2="165.9"/>

		<line fill="none" stroke="#948A82" stroke-width="0.5" stroke-linecap="round" stroke-miterlimit="10" stroke-dasharray="0,1.5051" x1="42.2" y1="165.9" x2="238.6" y2="165.9"/>

		<line fill="none" stroke="#948A82" stroke-width="0.5" stroke-linecap="round" stroke-miterlimit="10" x1="239.4" y1="165.9" x2="239.4" y2="165.9"/>
</g>
<rect x="40.7" y="247.6" fill="none" width="207.8" height="107.7"/>
<text transform="matrix(1 0 0 1 40 251.8788)" fill="#373434" font-family="'AvenirNextLTPro-LightCn'" font-size="6px">Data presented are LS mean ± SE</text>
<text transform="matrix(1 0 0 1 40 258.0811)" fill="#373434" font-family="'AvenirNextLTPro-LightCn'" font-size="4.5px">||</text>
<text transform="matrix(1 0 0 1 43 260.079)" fill="#373434" font-family="'AvenirNextLTPro-LightCn'" font-size="6px">Treatment difference (95% CI); intent-to-treat population; mixed model repeated </text>
<text transform="matrix(1 0 0 1 40 267.2792)" fill="#373434" font-family="'AvenirNextLTPro-LightCn'" font-size="6px">measures analysis.</text>
<g>
	<text transform="matrix(1 0 0 1 32.2948 10.8608)" fill="#373434" font-family="'AvenirNextLTPro-LightCn'" font-size="8px">0</text>
	<text transform="matrix(1 0 0 1 24.079 47.5654)" fill="#373434" font-family="'AvenirNextLTPro-LightCn'" font-size="8px">-0.4</text>
	<text transform="matrix(1 0 0 1 24.079 86.2696)" fill="#373434" font-family="'AvenirNextLTPro-LightCn'" font-size="8px">-0.8</text>
	<text transform="matrix(1 0 0 1 24.079 125.9738)" fill="#373434" font-family="'AvenirNextLTPro-LightCn'" font-size="8px">-1.2</text>
	<text transform="matrix(1 0 0 1 24.079 185.0302)" fill="#373434" font-family="'AvenirNextLTPro-LightCn'" font-size="8px">-1.8</text>
	<text transform="matrix(1 0 0 1 24.079 165.678)" fill="#373434" font-family="'AvenirNextLTPro-LightCn'" font-size="8px">-1.6</text>
	<text transform="matrix(1 0 0 1 24.079 27.213)" fill="#373434" font-family="'AvenirNextLTPro-LightCn'" font-size="8px">-0.2</text>
	<text transform="matrix(1 0 0 1 24.079 66.9173)" fill="#373434" font-family="'AvenirNextLTPro-LightCn'" font-size="8px">-0.6</text>
	<text transform="matrix(1 0 0 1 24.079 106.6215)" fill="#373434" font-family="'AvenirNextLTPro-LightCn'" font-size="8px">-1.0</text>
	<text transform="matrix(1 0 0 1 24.079 146.3257)" fill="#373434" font-family="'AvenirNextLTPro-LightCn'" font-size="8px">-1.4</text>
</g>
<line fill="none" stroke="#373434" stroke-width="0.75" stroke-linejoin="round" x1="185.8" y1="74.6" x2="185.8" y2="89.4"/>
<rect x="184.2" y="74.4" fill="#373434" width="3.2" height="0.5"/>
<rect x="184.2" y="89.2" fill="#373434" width="3.2" height="0.5"/>
<text transform="matrix(1 0 0 1 155.6385 112.9335)" fill="#C1BBB5" font-family="'AvenirNextLTPro-Light'" font-size="24px">-0.67</text>
<text transform="matrix(1 0 0 1 210 99.9375)" fill="#373434" font-family="'AvenirNextLTPro-LightCn'" font-size="6.996px">‡</text>
<text transform="matrix(1 0 0 1 169.5233 206.8532)" fill="#373434" font-family="'AvenirNextLTPro-DemiCn'" font-size="8px">Placebo +</text>
<text transform="matrix(1 0 0 1 169.5233 216.4532)" fill="#373434" font-family="'AvenirNextLTPro-DemiCn'" font-size="8px">titrated insulin glargine</text>
<text transform="matrix(1 0 0 1 249.4233 216.4532)" fill="#373434" font-family="'AvenirNextLTPro-LightCn'" font-size="8px">  </text>
<text transform="matrix(1 0 0 1 169.5233 226.0532)" fill="#373434" font-family="'AvenirNextLTPro-LightCn'" font-size="8px">(n=150; baseline HbA1c:  </text>
<text transform="matrix(1 0 0 1 169.5233 235.6532)" fill="#373434" font-family="'AvenirNextLTPro-LightCn'" font-size="8px">8.4%)</text>
<circle fill="#C1BBB5" cx="163.4" cy="204" r="2.5"/>
<line fill="none" stroke="#373434" stroke-width="0.75" stroke-linejoin="round" x1="94.7" y1="145.2" x2="94.7" y2="161.3"/>
<rect x="93.1" y="145" fill="#373434" width="3.2" height="0.5"/>
<rect x="93.1" y="161" fill="#373434" width="3.2" height="0.5"/>
<text transform="matrix(1 0 0 1 63.7209 186.0306)" fill="#8FC5E6" font-family="'AvenirNextLTPro-Light'" font-size="24px">-1.44</text>
<text transform="matrix(1 0 0 1 118 173.0342)" fill="#373434" font-family="'AvenirNextLTPro-LightCn'" font-size="6.996px">‡§</text>
<text transform="matrix(1 0 0 1 63.9025 206.8532)" fill="#373434" font-family="'AvenirNextLTPro-DemiCn'" font-size="8px">Trulicity® (1.5 mg) +</text>
<text transform="matrix(1 0 0 1 63.9025 216.8532)" fill="#373434" font-family="'AvenirNextLTPro-DemiCn'" font-size="8px">titrated insulin glargine</text>
<text transform="matrix(1 0 0 1 63.9025 226.8532)" fill="#373434" font-family="'AvenirNextLTPro-LightCn'" font-size="8px">(n=150; baseline HbA1c:</text>
<text transform="matrix(1 0 0 1 63.9025 236.8532)" fill="#373434" font-family="'AvenirNextLTPro-LightCn'" font-size="8px">8.4%)</text>
<circle fill="#8FC5E6" cx="58" cy="204" r="2.5"/>
<path fill="#8FC5E6" d="M77.2,148.9c0,0.7,0.6,1.5,1.2,1.7c0,0,6.2,2,16.8,2s16.8-2,16.8-2c0.7-0.2,1.2-1,1.2-1.7V4.3h-36V148.9z"/>
<path fill="#C1BBB5" d="M167.8,74.9c0,0.7,0.6,1.5,1.2,1.7c0,0,6.2,2,16.8,2s16.8-2,16.8-2c0.7-0.2,1.2-1,1.2-1.7V4.3h-36V74.9z"/>
<text transform="matrix(0 -1 1 0 12.78 145.6777)" fill="#373434" font-family="'AvenirNextLTPro-LightCn'" font-size="9px">Mean change in HbA1c (%)</text>
<text transform="matrix(1 0 0 1 154 174.3447)" fill="#373434" font-family="'AvenirNextLTPro-LightCn'" font-size="6px">Treatment difference: -0.77 (-0.97, -0.56)</text>
<text transform="matrix(1 0 0 1 237.6396 172.3467)" fill="#373434" font-family="'AvenirNextLTPro-LightCn'" font-size="4.5px">||</text>
<text transform="matrix(1 0 0 1 142 179.5469)" fill="#373434" font-family="'AvenirNextLTPro-LightCn'" font-size="5px">‡§</text>
<text transform="matrix(1 0 -0.2 1 147 181.5449)" fill="#373434" font-family="'AvenirNextLTPro-LightCn'" font-size="6px">P</text>
<text transform="matrix(1 0 0 1 150 181.5449)" fill="#373434" font-family="'AvenirNextLTPro-LightCn'" font-size="6px">&lt;.001 vs baseline and placebo, respectively.</text>
<polyline fill="none" stroke="#948A82" stroke-width="0.5" stroke-miterlimit="10" points="40.4,186.1 40.4,4.3 239.4,4.3 "/>
<text transform="matrix(0.8766 -0.4812 0.4812 0.8766 118.126 123.2736)" opacity="0.3" fill="#E41E26" font-family="'AvenirNextLTPro-Bold'" font-size="40px">FPO</text>
</svg>
