<?xml version="1.0" encoding="utf-8"?>
<!-- Generator: Adobe Illustrator 19.2.0, SVG Export Plug-In . SVG Version: 6.00 Build 0)  -->
<svg version="1.1" id="Layer_1" xmlns="http://www.w3.org/2000/svg" xmlns:xlink="http://www.w3.org/1999/xlink" x="0px" y="0px"
	 viewBox="0 0 255 279" enable-background="new 0 0 255 279" xml:space="preserve">
<g>

		<line fill="none" stroke="#948885" stroke-width="0.5" stroke-linecap="round" stroke-miterlimit="10" x1="41.7" y1="128.4" x2="41.7" y2="128.4"/>

		<line fill="none" stroke="#948885" stroke-width="0.5" stroke-linecap="round" stroke-miterlimit="10" stroke-dasharray="0,1.5051" x1="43.2" y1="128.4" x2="239.6" y2="128.4"/>

		<line fill="none" stroke="#948885" stroke-width="0.5" stroke-linecap="round" stroke-miterlimit="10" x1="240.4" y1="128.4" x2="240.4" y2="128.4"/>

		<line fill="none" stroke="#948885" stroke-width="0.5" stroke-linecap="round" stroke-miterlimit="10" x1="41.7" y1="156.7" x2="41.7" y2="156.7"/>

		<line fill="none" stroke="#948885" stroke-width="0.5" stroke-linecap="round" stroke-miterlimit="10" stroke-dasharray="0,1.5051" x1="43.2" y1="156.7" x2="239.6" y2="156.7"/>

		<line fill="none" stroke="#948885" stroke-width="0.5" stroke-linecap="round" stroke-miterlimit="10" x1="240.4" y1="156.7" x2="240.4" y2="156.7"/>

		<line fill="none" stroke="#948885" stroke-width="0.5" stroke-linecap="round" stroke-miterlimit="10" stroke-dasharray="0,1.5" x1="41.7" y1="43.6" x2="240.4" y2="43.6"/>

		<line fill="none" stroke="#948885" stroke-width="0.5" stroke-linecap="round" stroke-miterlimit="10" stroke-dasharray="0,1.5" x1="41.7" y1="15.3" x2="240.4" y2="15.3"/>

		<line fill="none" stroke="#948885" stroke-width="0.5" stroke-linecap="round" stroke-miterlimit="10" x1="41.7" y1="100.1" x2="41.7" y2="100.1"/>

		<line fill="none" stroke="#948885" stroke-width="0.5" stroke-linecap="round" stroke-miterlimit="10" stroke-dasharray="0,1.5051" x1="43.2" y1="100.1" x2="239.6" y2="100.1"/>

		<line fill="none" stroke="#948885" stroke-width="0.5" stroke-linecap="round" stroke-miterlimit="10" x1="240.4" y1="100.1" x2="240.4" y2="100.1"/>

		<line fill="none" stroke="#948885" stroke-width="0.5" stroke-linecap="round" stroke-miterlimit="10" x1="41.7" y1="71.8" x2="41.7" y2="71.8"/>

		<line fill="none" stroke="#948885" stroke-width="0.5" stroke-linecap="round" stroke-miterlimit="10" stroke-dasharray="0,1.5051" x1="43.2" y1="71.8" x2="239.6" y2="71.8"/>

		<line fill="none" stroke="#948885" stroke-width="0.5" stroke-linecap="round" stroke-miterlimit="10" x1="240.4" y1="71.8" x2="240.4" y2="71.8"/>

		<line fill="none" stroke="#948885" stroke-width="0.5" stroke-linecap="round" stroke-miterlimit="10" x1="41.7" y1="185" x2="41.7" y2="185"/>

		<line fill="none" stroke="#948885" stroke-width="0.5" stroke-linecap="round" stroke-miterlimit="10" stroke-dasharray="0,1.5051" x1="43.2" y1="185" x2="239.6" y2="185"/>

		<line fill="none" stroke="#948885" stroke-width="0.5" stroke-linecap="round" stroke-miterlimit="10" x1="240.4" y1="185" x2="240.4" y2="185"/>
</g>
<g>
	<text transform="matrix(1 0 0 1 29.1903 45.8373)" fill="#322E2E" font-family="'AvenirNextLTPro-LightCn'" font-size="8px">30</text>
	<text transform="matrix(1 0 0 1 29.1903 17.5274)" fill="#322E2E" font-family="'AvenirNextLTPro-LightCn'" font-size="8px">35</text>
	<text transform="matrix(1 0 0 1 29.1903 102.4571)" fill="#322E2E" font-family="'AvenirNextLTPro-LightCn'" font-size="8px">20</text>
	<text transform="matrix(1 0 0 1 33.2948 215.6969)" fill="#322E2E" font-family="'AvenirNextLTPro-LightCn'" font-size="8px">0</text>
	<text transform="matrix(1 0 0 1 33.2948 187.3874)" fill="#322E2E" font-family="'AvenirNextLTPro-LightCn'" font-size="8px">5</text>
	<text transform="matrix(1 0 0 1 29.1903 74.1474)" fill="#322E2E" font-family="'AvenirNextLTPro-LightCn'" font-size="8px">25</text>
	<text transform="matrix(1 0 0 1 29.1903 130.7673)" fill="#322E2E" font-family="'AvenirNextLTPro-LightCn'" font-size="8px">15</text>
	<text transform="matrix(1 0 0 1 29.1903 159.0774)" fill="#322E2E" font-family="'AvenirNextLTPro-LightCn'" font-size="8px">10</text>
</g>
<rect x="41.4" y="258" fill="none" width="149.3" height="14.9"/>
<text transform="matrix(1 0 0 1 174.4934 55.9335)" fill="#C7BEBB" font-family="'AvenirNextLTPro-Light'" font-size="24px">26</text>
<text transform="matrix(1 0 0 1 200 42)" fill="#322E2E" font-family="'AvenirNextLTPro-LightCn'" font-size="7">¶</text>
<text transform="matrix(1 0 0 1 166.5233 228.8532)" fill="#322E2E" font-family="'AvenirNextLTPro-DemiCn'" font-size="8px">Placebo +</text>
<text transform="matrix(1 0 0 1 166.5233 238.4532)" fill="#322E2E" font-family="'AvenirNextLTPro-DemiCn'" font-size="8px">titrated insulin glargine</text>
<text transform="matrix(1 0 0 1 246.4233 238.4532)" fill="#322E2E" font-family="'AvenirNextLTPro-LightCn'" font-size="8px">  </text>
<text transform="matrix(1 0 0 1 166.5233 248.0532)" fill="#322E2E" font-family="'AvenirNextLTPro-LightCn'" font-size="8px">(n=150)</text>
<circle fill="#CAC5C1" cx="160.4" cy="226" r="2.5"/>
<text transform="matrix(1 0 0 1 82.3196 130.7674)" fill="#8FC5E6" font-family="'AvenirNextLTPro-Light'" font-size="24px">13</text>
<text transform="matrix(1 0 0 1 110 117)" fill="#322E2E" font-family="'AvenirNextLTPro-LightCn'" font-size="7px">¶#</text>
<text transform="matrix(1 0 0 1 70 228.8532)" fill="#322E2E" font-family="'AvenirNextLTPro-DemiCn'" font-size="8px">Trulicity 1.5 mg +</text>
<text transform="matrix(1 0 0 1 70 238.4532)" fill="#322E2E" font-family="'AvenirNextLTPro-DemiCn'" font-size="8px">titrated insulin glargine</text>
<text transform="matrix(1 0 0 1 70 248.0532)" fill="#322E2E" font-family="'AvenirNextLTPro-LightCn'" font-size="8px">(n=150)</text>
<circle fill="#8FC5E6" cx="64" cy="226" r="2.5"/>
<path fill="#CAC5C1" d="M204.8,69.2c0-0.7-0.6-1.5-1.2-1.7c0,0-6.2-2-16.8-2s-16.8,2-16.8,2c-0.7,0.2-1.2,1-1.2,1.7v144.2h36V69.2z"
	/>
<path fill="#8FC5E6" d="M114.2,142.8c0-0.7-0.6-1.5-1.2-1.7c0,0-6.2-2-16.8-2s-16.8,2-16.8,2c-0.7,0.2-1.2,1-1.2,1.7V213h36V142.8z"
	/>
<text transform="matrix(0 -1 1 0 13.78 200)" fill="#322E2E" font-family="'AvenirNextLTPro-LightCn'" font-size="9px"> Insulin glargine dose, LS mean change from baseline, units</text>
<polyline fill="none" stroke="#948885" stroke-width="0.5" stroke-miterlimit="10" points="41.4,15.3 41.4,213.1 240.4,213.1 "/>
<text transform="matrix(1 0 0 1 42 262.2126)" fill="#322E2E" font-family="'AvenirNextLTPro-LightCn'" font-size="6px">Baseline values are mean and 28-week values are LS mean.</text>
<text transform="matrix(1 0 0 1 42 270.4128)" fill="#322E2E" font-family="'AvenirNextLTPro-LightCn'" font-size="6px">¶#</text>
<text transform="matrix(1 0 -0.2 1 48 270.4128)" fill="#322E2E" font-family="'AvenirNextLTPro-LightCn'" font-size="6px">P</text>
<text transform="matrix(1 0 0 1 51 270.4128)" fill="#322E2E" font-family="'AvenirNextLTPro-LightCn'" font-size="6px">&lt;.001 vs baseline and placebo, respectively.</text>
<text transform="matrix(0.8766 -0.4812 0.4812 0.8766 120 170)" opacity="0.3" fill="#E41E26" font-family="'AvenirNextLTPro-Bold'" font-size="39px">FPO</text>
</svg>
