<?xml version="1.0" encoding="utf-8"?>
<!-- Generator: Adobe Illustrator 19.2.0, SVG Export Plug-In . SVG Version: 6.00 Build 0)  -->
<svg version="1.1" id="Layer_1" xmlns="http://www.w3.org/2000/svg" xmlns:xlink="http://www.w3.org/1999/xlink" x="0px" y="0px"
	 viewBox="0 0 492 402" enable-background="new 0 0 492 402" xml:space="preserve">
	<g fill="none" stroke="#8F8783" stroke-width="0.5297" stroke-linecap="round" stroke-miterlimit="10" >
		<line x1="40.3" y1="216.6" x2="40.3" y2="216.6"/>
		<line stroke-dasharray="0,2.1182" x1="42.4" y1="216.6" x2="481.9" y2="216.6"/>
		<line x1="483" y1="216.6" x2="483" y2="216.6"/>
		<line x1="40.3" y1="240.5" x2="40.3" y2="240.5"/>
		<line stroke-dasharray="0,2.1182" x1="42.4" y1="240.5" x2="481.9" y2="240.5"/>
		<line x1="483" y1="240.5" x2="483" y2="240.5"/>
		<line x1="40.3" y1="120.6" x2="40.3" y2="120.6"/>
		<line stroke-dasharray="0,2.1182" x1="42.4" y1="120.6" x2="481.9" y2="120.6"/>
		<line x1="483" y1="120.6" x2="483" y2="120.6"/>
		<line x1="40.3" y1="144.5" x2="40.3" y2="144.5"/>
		<line stroke-dasharray="0,2.1182" x1="42.4" y1="144.5" x2="481.9" y2="144.5"/>
		<line x1="483" y1="144.5" x2="483" y2="144.5"/>
		<line x1="40.3" y1="264.7" x2="40.3" y2="264.7"/>
		<line stroke-dasharray="0,2.1182" x1="42.4" y1="264.7" x2="481.9" y2="264.7"/>
		<line x1="483" y1="264.7" x2="483" y2="264.7"/>
		<line x1="40.3" y1="288.2" x2="40.3" y2="288.2"/>
		<line stroke-dasharray="0,2.1182" x1="42.4" y1="288.2" x2="481.9" y2="288.2"/>
		<line x1="483" y1="288.2" x2="483" y2="288.2"/>
		<line x1="40.3" y1="168.5" x2="40.3" y2="168.5"/>
		<line stroke-dasharray="0,2.1182" x1="42.4" y1="168.5" x2="481.9" y2="168.5"/>
		<line x1="483" y1="168.5" x2="483" y2="168.5"/>
		<line x1="40.3" y1="192.4" x2="40.3" y2="192.4"/>
		<line stroke-dasharray="0,2.1182" x1="42.4" y1="192.4" x2="481.9" y2="192.4"/>
		<line x1="483" y1="192.4" x2="483" y2="192.4"/>
		<line x1="40.3" y1="72.7" x2="40.3" y2="72.7"/>
		<line stroke-dasharray="0,2.1182" x1="42.4" y1="72.7" x2="481.9" y2="72.7"/>
		<line x1="483" y1="72.7" x2="483" y2="72.7"/>
		<line x1="40.3" y1="96.6" x2="40.3" y2="96.6"/>
		<line stroke-dasharray="0,2.1182" x1="42.4" y1="96.6" x2="481.9" y2="96.6"/>
		<line x1="483" y1="96.6" x2="483" y2="96.6"/>
		<line x1="40.3" y1="56.5" x2="40.3" y2="56.5"/>
		<line stroke-dasharray="0,2.1182" x1="42.4" y1="56.5" x2="481.9" y2="56.5"/>
		<line x1="483" y1="56.5" x2="483" y2="56.5"/>
	</g>

	<path fill="#F2C841" d="M61.4,275.9c0-0.2-0.1-0.4-0.3-0.4c0,0-1.5-0.5-4.2-0.5c-2.6,0-4.2,0.5-4.2,0.5c-0.2,0.1-0.3,0.2-0.3,0.4
		V312h8.9L61.4,275.9L61.4,275.9z"/>
	<path fill="#80C6E6" d="M70.3,239.8c0-0.2-0.1-0.4-0.3-0.4c0,0-1.5-0.5-4.2-0.5c-2.6,0-4.2,0.5-4.2,0.5c-0.2,0.1-0.3,0.2-0.3,0.4
		v72.1h8.9L70.3,239.8L70.3,239.8z"/>
	<path fill="#F2C841" d="M89.8,288c0-0.2-0.1-0.4-0.3-0.4c0,0-1.5-0.5-4.2-0.5c-2.6,0-4.2,0.5-4.2,0.5c-0.2,0.1-0.3,0.2-0.3,0.4v23.9
		h8.9L89.8,288L89.8,288z"/>
	<path fill="#80C6E6" d="M98.8,264.1c0-0.2-0.1-0.4-0.3-0.4c0,0-1.5-0.5-4.2-0.5c-2.6,0-4.2,0.5-4.2,0.5c-0.2,0.1-0.3,0.2-0.3,0.4
		v47.6h8.9L98.8,264.1L98.8,264.1z"/>
	<path fill="#F2C841" d="M118.3,294.7c0-0.2-0.1-0.4-0.3-0.4c0,0-1.5-0.5-4.2-0.5c-2.6,0-4.2,0.5-4.2,0.5c-0.2,0.1-0.3,0.2-0.3,0.4
		v17h8.9L118.3,294.7L118.3,294.7z"/>
	<path fill="#80C6E6" d="M127.2,280.1c0-0.2-0.1-0.4-0.3-0.4c0,0-1.5-0.5-4.2-0.5c-2.6,0-4.2,0.5-4.2,0.5c-0.2,0.1-0.3,0.2-0.3,0.4
		v31.6h8.9L127.2,280.1L127.2,280.1z"/>
	<path fill="#F2C841" d="M146.7,299.2c0-0.2-0.1-0.4-0.3-0.4c0,0-1.5-0.5-4.2-0.5c-2.6,0-4.2,0.5-4.2,0.5c-0.2,0.1-0.3,0.2-0.3,0.4
		v12.4h8.9v-12.4H146.7z"/>
	<path fill="#80C6E6" d="M155.7,283.5c0-0.2-0.1-0.4-0.3-0.4c0,0-1.5-0.5-4.2-0.5c-2.6,0-4.2,0.5-4.2,0.5c-0.2,0.1-0.3,0.2-0.3,0.4
		v28.1h8.9v-28.1H155.7z"/>
	<path fill="#F2C841" d="M175.2,300.4c0-0.2-0.1-0.4-0.3-0.4c0,0-1.5-0.5-4.2-0.5c-2.6,0-4.2,0.5-4.2,0.5c-0.2,0.1-0.3,0.2-0.3,0.4
		v11.2h8.9v-11.2H175.2z"/>
	<path fill="#80C6E6" d="M184.1,287c0-0.2-0.1-0.4-0.3-0.4c0,0-1.5-0.5-4.2-0.5c-2.6,0-4.2,0.5-4.2,0.5c-0.2,0.1-0.3,0.2-0.3,0.4
		v24.9h8.9V287H184.1z"/>
	<path fill="#F2C841" d="M203.6,300.4c0-0.2-0.1-0.4-0.3-0.4c0,0-1.5-0.5-4.2-0.5c-2.6,0-4.2,0.5-4.2,0.5c-0.2,0.1-0.3,0.2-0.3,0.4
		v11.2h8.9v-11.2H203.6z"/>
	<path fill="#80C6E6" d="M212.5,288.9c0-0.2-0.1-0.4-0.3-0.4c0,0-1.5-0.5-4.2-0.5c-2.6,0-4.2,0.5-4.2,0.5c-0.2,0.1-0.3,0.2-0.3,0.4
		v22.9h8.9v-22.9H212.5z"/>
	<path fill="#F2C841" d="M232,300.8c0-0.2-0.1-0.4-0.3-0.4c0,0-1.5-0.5-4.2-0.5c-2.6,0-4.2,0.5-4.2,0.5c-0.2,0.1-0.3,0.2-0.3,0.4V312
		h8.9v-11.2H232z"/>
	<path fill="#80C6E6" d="M241,288.9c0-0.2-0.1-0.4-0.3-0.4c0,0-1.5-0.5-4.2-0.5c-2.6,0-4.2,0.5-4.2,0.5c-0.2,0.1-0.3,0.2-0.3,0.4
		v22.9h8.9v-22.9H241z"/>
	<path fill="#F2C841" d="M260.5,301.9c0-0.2-0.1-0.4-0.3-0.4c0,0-1.5-0.5-4.2-0.5c-2.6,0-4.2,0.5-4.2,0.5c-0.2,0.1-0.3,0.2-0.3,0.4
		v9.9h8.9v-9.9H260.5z"/>
	<path fill="#80C6E6" d="M269.4,290.4c0-0.2-0.1-0.4-0.3-0.4c0,0-1.5-0.5-4.2-0.5c-2.6,0-4.2,0.5-4.2,0.5c-0.2,0.1-0.3,0.2-0.3,0.4
		v21.4h8.9v-21.4H269.4z"/>
	<path fill="#F2C841" d="M288.9,303.7c0-0.2-0.1-0.4-0.3-0.4c0,0-1.5-0.5-4.2-0.5c-2.6,0-4.2,0.5-4.2,0.5c-0.2,0.1-0.3,0.2-0.3,0.4
		v8.1h8.9v-8.1H288.9z"/>
	<path fill="#80C6E6" d="M297.9,292c0-0.2-0.1-0.4-0.3-0.4c0,0-1.5-0.5-4.2-0.5c-2.6,0-4.2,0.5-4.2,0.5c-0.2,0.1-0.3,0.2-0.3,0.4
		v19.8h8.9V292H297.9z"/>
	<path fill="#F2C841" d="M317.4,302c0-0.2-0.1-0.4-0.3-0.4c0,0-1.5-0.5-4.2-0.5c-2.6,0-4.2,0.5-4.2,0.5c-0.2,0.1-0.3,0.2-0.3,0.4v9.9
		h8.9V302H317.4z"/>
	<path fill="#80C6E6" d="M326.3,290.3c0-0.2-0.1-0.4-0.3-0.4c0,0-1.5-0.5-4.2-0.5c-2.6,0-4.2,0.5-4.2,0.5c-0.2,0.1-0.3,0.2-0.3,0.4
		v21.6h8.9v-21.6H326.3z"/>
	<path fill="#F2C841" d="M345.8,303.1c0-0.2-0.1-0.4-0.3-0.4c0,0-1.5-0.5-4.2-0.5c-2.6,0-4.2,0.5-4.2,0.5c-0.2,0.1-0.3,0.2-0.3,0.4
		v8.7h8.9v-8.7H345.8z"/>
	<path fill="#80C6E6" d="M354.8,291.9c0-0.2-0.1-0.4-0.3-0.4c0,0-1.5-0.5-4.2-0.5c-2.6,0-4.2,0.5-4.2,0.5c-0.2,0.1-0.3,0.2-0.3,0.4
		v19.8h8.9v-19.8H354.8z"/>
	<path fill="#F2C841" d="M374.3,303.1c0-0.2-0.1-0.4-0.3-0.4c0,0-1.5-0.5-4.2-0.5c-2.6,0-4.2,0.5-4.2,0.5c-0.2,0.1-0.3,0.2-0.3,0.4
		v8.7h8.9v-8.7H374.3z"/>
	<path fill="#80C6E6" d="M383.2,291.9c0-0.2-0.1-0.4-0.3-0.4c0,0-1.5-0.5-4.2-0.5c-2.6,0-4.2,0.5-4.2,0.5c-0.2,0.1-0.3,0.2-0.3,0.4
		v19.8h8.9v-19.8H383.2z"/>
	<path fill="#F2C841" d="M402.7,303c0-0.2-0.1-0.4-0.3-0.4c0,0-1.5-0.5-4.2-0.5c-2.6,0-4.2,0.5-4.2,0.5c-0.2,0.1-0.3,0.2-0.3,0.4v8.7
		h8.9V303H402.7z"/>
	<path fill="#80C6E6" d="M411.6,291.9c0-0.2-0.1-0.4-0.3-0.4c0,0-1.5-0.5-4.2-0.5c-2.6,0-4.2,0.5-4.2,0.5c-0.2,0.1-0.3,0.2-0.3,0.4
		v19.8h8.9v-19.8H411.6z"/>
	<path fill="#F2C841" d="M459.6,298.9c0-0.2-0.1-0.4-0.3-0.4c0,0-1.5-0.5-4.2-0.5c-2.6,0-4.2,0.5-4.2,0.5c-0.2,0.1-0.3,0.2-0.3,0.4
		v12.9h8.9v-12.9H459.6z"/>
	<path fill="#80C6E6" d="M468.5,292.3c0-0.2-0.1-0.4-0.3-0.4c0,0-1.5-0.5-4.2-0.5c-2.6,0-4.2,0.5-4.2,0.5c-0.2,0.1-0.3,0.2-0.3,0.4
		v19.5h8.9v-19.5H468.5z"/>
	<path fill="#F2C841" d="M431.1,299.2c0-0.2-0.1-0.4-0.3-0.4c0,0-1.5-0.5-4.2-0.5c-2.6,0-4.2,0.5-4.2,0.5c-0.2,0.1-0.3,0.2-0.3,0.4
		v12.5h8.9v-12.5H431.1z"/>
	<path fill="#80C6E6" d="M440.1,287.5c0-0.2-0.1-0.4-0.3-0.4c0,0-1.5-0.5-4.2-0.5c-2.6,0-4.2,0.5-4.2,0.5c-0.2,0.1-0.3,0.2-0.3,0.4
		v24.2h8.9v-24.2H440.1z"/>

	<g fill="#3E373B" font-family="'AvenirNextLTPro-LightCn'" font-size="11px">
		<text transform="matrix(1 0 0 1 25.3579 75.3975)">50</text>
		<text transform="matrix(1 0 0 1 20.228 59.2618)">100</text>
		<text transform="matrix(1 0 0 1 25.3579 123.2828)">40</text>
		<text transform="matrix(1 0 0 1 25.3579 219.3052)">20</text>
		<text transform="matrix(1 0 0 1 25.3579 171.1695)">30</text>
		<text transform="matrix(1 0 0 1 25.3579 147.2154)">35</text>
		<text transform="matrix(1 0 0 1 25.3579 99.3296)">45</text>
		<text transform="matrix(1 0 0 1 25.3579 267.441)">10</text>
		<text transform="matrix(1 0 0 1 25.3579 243.2378)">15</text>
		<text transform="matrix(1 0 0 1 25.3579 195.1021)">25</text>
		<text transform="matrix(1 0 0 1 30.4878 290.9585)">5</text>
		<text transform="matrix(1 0 0 1 30.4878 314.0757)">0</text>
		<text transform="matrix(0 -1 1 0 64.1963 352)">0 to ≤2</text>
		<text transform="matrix(0 -1 1 0 92.5429 358)">&gt;2 to ≤4</text>
		<text transform="matrix(0 -1 1 0 120.9863 358)">&gt;4 to ≤6</text>
		<text transform="matrix(0 -1 1 0 149.4301 358)">&gt;6 to ≤8</text>
		<text transform="matrix(0 -1 1 0 177.872 364)">&gt;8 to ≤10</text>
		<text transform="matrix(0 -1 1 0 206.3159 369)">&gt;10 to ≤12</text>
		<text transform="matrix(0 -1 1 0 234.7592 369)">&gt;12 to ≤14</text>
		<text transform="matrix(0 -1 1 0 263.2016 369)">&gt;14 to ≤16</text>
		<text transform="matrix(0 -1 1 0 291.646 369)">&gt;16  to ≤18</text>
		<text transform="matrix(0 -1 1 0 320.0893 369)">&gt;18 to ≤20</text>
		<text transform="matrix(0 -1 1 0 348.5317 369)">&gt;20 to ≤22</text>
		<text transform="matrix(0 -1 1 0 376.9746 369)">&gt;22 to ≤24</text>
		<text transform="matrix(0 -1 1 0 405.4179 369)">&gt;24 to ≤26</text>
		<text transform="matrix(0 -1 1 0 433.8613 369)">&gt;26 to ≤39</text>
		<text transform="matrix(0 -1 1 0 462.3051 369)">&gt;39 to ≤52</text>
		<text transform="matrix(0 -1 1 0 11.8657 259.6172)" font-size="13px">Patients experiencing nausea (%)</text>
		<text transform="matrix(1 0 0 1 214.6411 389)" font-size="13px">Time interval (weeks)</text>
	</g>
	<line fill="none" stroke="#8F8783" stroke-width="0.5298" stroke-miterlimit="10" x1="40.3" y1="311.8" x2="483" y2="311.8"/>
	<polyline fill="none" stroke="#8F8783" stroke-width="0.5298" stroke-miterlimit="10" points="40.3,311.8 40.3,68.7 44.2,66.7
		36.2,62.4 40.3,60.2 40.3,55.9 "/>
	<text transform="matrix(1 0 0 1 100 22.5)" fill="#382F30" font-family="'AvenirNextLTPro-Demi'" font-size="13px">Prevalence of nausea in patients treated with Trulicity</text>
	<text transform="matrix(0.583 0 0 0.583 420 18.1709)" fill="#382F30" font-family="'AvenirNextLTPro-Demi'" font-size="13px">2</text>
</svg>
